<?xml version="1.0" encoding="UTF-8"?>
<svg width="273px" height="32px" viewBox="0 0 273 32" version="1.1" xmlns="http://www.w3.org/2000/svg" xmlns:xlink="http://www.w3.org/1999/xlink">
    <!-- Generator: Sketch 41.2 (35397) - http://www.bohemiancoding.com/sketch -->
    <title>Page 1</title>
    <desc>Created with Sketch.</desc>
    <defs>
        <polygon id="path-1" points="0.0205589041 6.1369863 4.37299726 6.1369863 4.37299726 0.213567123 0.0205589041 0.213567123 0.0205589041 6.1369863"></polygon>
        <polygon id="path-3" points="0.431736986 6.1369863 4.30417534 6.1369863 4.30417534 0.0672 0.431736986 0.0672"></polygon>
        <polygon id="path-5" points="39.4807233 0.0802191781 0.000175342466 0.0802191781 0.000175342466 31.5155726 39.4807233 31.5155726 39.4807233 0.0802191781"></polygon>
    </defs>
    <g id="Symbols" stroke="none" stroke-width="1" fill="none" fill-rule="evenodd">
        <g id="footer" transform="translate(-150.000000, -40.000000)">
            <g id="Page-1" transform="translate(150.000000, 40.000000)">
                <path d="M186.112175,28.6352658 C185.903956,28.4682521 185.686093,28.3858411 185.459901,28.3858411 C185.068449,28.3858411 184.76686,28.5046356 184.556449,28.7435397 C184.3456,28.9824438 184.239518,29.3239233 184.239518,29.7701699 C184.239518,30.6398685 184.659463,31.0751562 185.498915,31.0751562 C185.591847,31.0751562 185.708011,31.046663 185.84434,30.9909918 C185.981545,30.9353205 186.071408,30.8787726 186.112175,30.8217863 L186.112175,28.6352658 Z M186.112175,31.8225534 L186.112175,31.5691836 C186.031956,31.6572932 185.894312,31.7348822 185.701436,31.8015123 C185.508997,31.8681425 185.31086,31.9014575 185.103518,31.9014575 C184.520066,31.9014575 184.058477,31.7164712 183.724449,31.3464986 C183.389545,30.9756493 183.222532,30.4601425 183.222532,29.7964712 C183.222532,29.1349918 183.415408,28.5966904 183.799408,28.1802521 C184.183408,27.7638137 184.665162,27.5569096 185.244668,27.5569096 C185.562477,27.5569096 185.85223,27.6222247 186.112175,27.7519781 L186.112175,26.074389 L187.08971,25.8403068 L187.08971,31.8225534 L186.112175,31.8225534 Z" id="Fill-1" fill="#221F20"></path>
                <path d="M181.625863,31.8227726 L181.625863,29.4030466 C181.625863,29.0453479 181.557918,28.7849644 181.420712,28.6205808 C181.283945,28.4566356 181.059945,28.3737863 180.750027,28.3737863 C180.606247,28.3737863 180.454137,28.4141151 180.291507,28.495211 C180.128438,28.5758685 180.000438,28.6766904 179.90926,28.7954849 L179.90926,31.8227726 L178.932164,31.8227726 L178.932164,27.6342795 L179.635288,27.6342795 L179.81589,28.0252932 C180.081973,27.7131836 180.473863,27.5571288 180.992438,27.5571288 C181.490849,27.5571288 181.884055,27.7061699 182.171616,28.0042521 C182.460055,28.3027726 182.602959,28.7196493 182.602959,29.2540055 L182.602959,31.8227726" id="Fill-3" fill="#221F20"></path>
                <path d="M177.143408,29.8514849 C176.976833,29.8181699 176.852778,29.8006356 176.768614,29.8006356 C175.997545,29.8006356 175.610915,30.0544438 175.610915,30.5603068 C175.610915,30.9355397 175.82834,31.1231562 176.263627,31.1231562 C176.851025,31.1231562 177.143408,30.8298959 177.143408,30.242937 L177.143408,29.8514849 Z M177.238532,31.4050192 C177.149107,31.5505534 176.993929,31.6697863 176.773436,31.7631562 C176.553381,31.8556493 176.323682,31.9016767 176.083463,31.9016767 C175.632395,31.9016767 175.278641,31.7881425 175.019134,31.5628274 C174.761819,31.3375123 174.632066,31.0166356 174.632066,30.6032658 C174.632066,30.1184438 174.815299,29.7375123 175.179134,29.4644164 C175.54297,29.1904438 176.058915,29.0545534 176.730038,29.0545534 C176.844449,29.0545534 176.979463,29.0734027 177.135079,29.1132932 C177.135079,28.6205808 176.824723,28.3737863 176.201819,28.3737863 C175.834477,28.3737863 175.525874,28.4351562 175.278641,28.5578959 L175.068668,27.798663 C175.404011,27.6369096 175.802915,27.5571288 176.268011,27.5571288 C176.907573,27.5571288 177.375299,27.7017863 177.671627,27.9919781 C177.968833,28.2821699 178.117874,28.8344986 178.117874,29.6441425 L178.117874,30.5401425 C178.117874,31.0981699 178.230093,31.4492932 178.454532,31.5921973 C178.373436,31.7333479 178.283134,31.8201425 178.184942,31.8517041 C178.084121,31.8841425 177.971025,31.9016767 177.84434,31.9016767 C177.702751,31.9016767 177.577381,31.8495123 177.465162,31.7438685 C177.353381,31.6395397 177.276668,31.5260055 177.238532,31.4050192 L177.238532,31.4050192 Z" id="Fill-5" fill="#221F20"></path>
                <polyline id="Fill-7" fill="#221F20" points="170.779967 31.8227726 170.779967 26.0943342 171.796953 26.0943342 171.796953 30.9188822 174.3872 30.9188822 174.3872 31.8227726"></polyline>
                <path d="M166.27954,29.8514849 C166.112526,29.8181699 165.988033,29.8006356 165.904745,29.8006356 C165.132362,29.8006356 164.747047,30.0544438 164.747047,30.5603068 C164.747047,30.9355397 164.964471,31.1231562 165.399759,31.1231562 C165.987156,31.1231562 166.27954,30.8298959 166.27954,30.242937 L166.27954,29.8514849 Z M166.374663,31.4050192 C166.285238,31.5505534 166.13006,31.6697863 165.909567,31.7631562 C165.689512,31.8556493 165.459814,31.9016767 165.219156,31.9016767 C164.768526,31.9016767 164.413458,31.7881425 164.155266,31.5628274 C163.897951,31.3375123 163.768197,31.0166356 163.768197,30.6032658 C163.768197,30.1184438 163.95143,29.7375123 164.315266,29.4644164 C164.679101,29.1904438 165.195047,29.0545534 165.865732,29.0545534 C165.980581,29.0545534 166.115156,29.0734027 166.271211,29.1132932 C166.271211,28.6205808 165.960855,28.3737863 165.336636,28.3737863 C164.969732,28.3737863 164.662005,28.4351562 164.414773,28.5578959 L164.203923,27.798663 C164.540142,27.6369096 164.939047,27.5571288 165.403266,27.5571288 C166.042827,27.5571288 166.51143,27.7017863 166.807759,27.9919781 C167.104964,28.2821699 167.254005,28.8344986 167.254005,29.6441425 L167.254005,30.5401425 C167.254005,31.0981699 167.365348,31.4492932 167.590663,31.5921973 C167.509567,31.7333479 167.419266,31.8201425 167.320197,31.8517041 C167.220252,31.8841425 167.107156,31.9016767 166.980033,31.9016767 C166.838444,31.9016767 166.713512,31.8495123 166.600855,31.7438685 C166.489512,31.6395397 166.4128,31.5260055 166.374663,31.4050192 L166.374663,31.4050192 Z" id="Fill-9" fill="#221F20"></path>
                <path d="M162.250871,31.8227726 L162.250871,29.4030466 C162.250871,29.0453479 162.181611,28.7849644 162.045721,28.6205808 C161.908953,28.4566356 161.684515,28.3737863 161.375036,28.3737863 C161.230816,28.3737863 161.079145,28.4141151 160.916515,28.495211 C160.753447,28.5758685 160.62457,28.6766904 160.534268,28.7954849 L160.534268,31.8227726 L159.557173,31.8227726 L159.557173,27.6342795 L160.260296,27.6342795 L160.44046,28.0252932 C160.706104,27.7131836 161.097995,27.5571288 161.616132,27.5571288 C162.115858,27.5571288 162.509063,27.7061699 162.796625,28.0042521 C163.085063,28.3027726 163.227967,28.7196493 163.227967,29.2540055 L163.227967,31.8227726" id="Fill-11" fill="#221F20"></path>
                <polyline id="Fill-13" fill="#221F20" points="157.670795 31.8227726 157.670795 27.6342795 158.659726 27.6342795 158.659726 31.8227726"></polyline>
                <path d="M158.175518,26.0113534 C158.331573,26.0113534 158.464833,26.067463 158.576175,26.1783671 C158.686641,26.2888329 158.742751,26.4225315 158.742751,26.5785863 C158.742751,26.7346411 158.686641,26.8696548 158.576175,26.9805589 C158.464833,27.0910247 158.331573,27.1458192 158.175518,27.1458192 C158.019901,27.1458192 157.884449,27.0910247 157.773984,26.9805589 C157.662641,26.8696548 157.607847,26.7346411 157.607847,26.5785863 C157.607847,26.4225315 157.662641,26.2888329 157.773984,26.1783671 C157.884449,26.067463 158.019901,26.0113534 158.175518,26.0113534" id="Fill-15" fill="#221F20"></path>
                <path d="M155.769249,31.8227726 L155.769249,29.2412932 C155.769249,28.9839781 155.687715,28.777074 155.526838,28.6205808 C155.365523,28.463211 155.154674,28.3856219 154.893852,28.3856219 C154.731222,28.3856219 154.568153,28.4298959 154.404208,28.5166904 C154.239825,28.6030466 154.122784,28.7034301 154.053523,28.8160877 L154.053523,31.8227726 L153.060208,31.8227726 L153.060208,26.0741699 L154.053523,25.840526 L154.053523,27.9016767 C154.305578,27.6715397 154.653195,27.5571288 155.097249,27.5571288 C155.61977,27.5571288 156.027003,27.7022247 156.317195,27.9919781 C156.60651,28.2830466 156.750729,28.6994849 156.750729,29.2412932 L156.750729,31.8227726" id="Fill-17" fill="#221F20"></path>
                <g id="Group-21" transform="translate(148.164384, 25.782970)">
                    <mask id="mask-2" fill="white">
                        <use xlink:href="#path-1"></use>
                    </mask>
                    <g id="Clip-20"></g>
                    <path d="M4.22132603,0.616854795 L3.80269589,1.45674521 C3.57518904,1.22923836 3.21091507,1.11701918 2.70812055,1.11701918 C2.2316274,1.11701918 1.83929863,1.31603288 1.53507945,1.71669041 C1.22998356,2.11690959 1.0765589,2.6227726 1.0765589,3.23559452 C1.0765589,3.84797808 1.21770959,4.33543014 1.50088767,4.69444384 C1.78318904,5.0547726 2.16192877,5.23362192 2.63316164,5.23362192 C3.17321644,5.23362192 3.59535342,5.04162192 3.90132603,4.65586849 L4.37299726,5.47690959 C3.95918904,5.91701918 3.3516274,6.13707397 2.5516274,6.13707397 C1.74987397,6.13707397 1.12828493,5.87406027 0.685545205,5.34715616 C0.242367123,4.82156712 0.0205589041,4.10310137 0.0205589041,3.19263562 C0.0205589041,2.34485479 0.266476712,1.6377863 0.759189041,1.06792329 C1.25014795,0.498060274 1.87875068,0.213567123 2.64499726,0.213567123 C3.30165479,0.213567123 3.82812055,0.346827397 4.22132603,0.616854795" id="Fill-19" fill="#221F20" mask="url(#mask-2)"></path>
                </g>
                <path d="M144.032526,28.6352658 C143.824307,28.4682521 143.606444,28.3858411 143.380252,28.3858411 C142.9888,28.3858411 142.687211,28.5046356 142.475923,28.7435397 C142.265074,28.9824438 142.159868,29.3239233 142.159868,29.7701699 C142.159868,30.6398685 142.578937,31.0751562 143.418827,31.0751562 C143.512197,31.0751562 143.628362,31.0475397 143.76469,30.9909918 C143.901896,30.9353205 143.990882,30.8787726 144.032526,30.8217863 L144.032526,28.6352658 Z M144.032526,31.8225534 L144.032526,31.5691836 C143.952307,31.6572932 143.814663,31.7348822 143.621786,31.8015123 C143.429348,31.8685808 143.229896,31.9014575 143.023868,31.9014575 C142.440416,31.9014575 141.980142,31.7155945 141.6448,31.3464986 C141.311211,30.9756493 141.142882,30.4601425 141.142882,29.7964712 C141.142882,29.1349918 141.334882,28.5966904 141.719321,28.1802521 C142.103759,27.7638137 142.585512,27.5569096 143.165019,27.5569096 C143.482827,27.5569096 143.772581,27.6222247 144.032526,27.7519781 L144.032526,26.074389 L145.01006,25.8403068 L145.01006,31.8225534 L144.032526,31.8225534 Z" id="Fill-22" fill="#221F20"></path>
                <path d="M139.384416,26.0743014 L140.362827,25.8402192 L140.362827,30.5486027 C140.362827,31.0645479 140.515814,31.3718356 140.824855,31.4704658 C140.673184,31.7571507 140.41543,31.9013699 140.050718,31.9013699 C139.60754,31.9013699 139.384416,31.5936438 139.384416,30.9781918" id="Fill-24" fill="#221F20"></path>
                <path d="M138.458038,28.5457973 C138.283573,28.4309479 138.092449,28.3735233 137.882915,28.3735233 C137.655847,28.3735233 137.455956,28.476537 137.279299,28.682126 C137.103079,28.8890301 137.015408,29.1397699 137.015408,29.4374137 L137.015408,31.8229479 L136.037874,31.8229479 L136.037874,27.6344548 L137.015408,27.6344548 L137.015408,28.0171397 C137.288504,27.7102904 137.651901,27.5568658 138.1056,27.5568658 C138.439189,27.5568658 138.695189,27.6077151 138.873162,27.7089753" id="Fill-26" fill="#221F20"></path>
                <path d="M132.48846,29.719189 C132.48846,30.6414904 132.820734,31.1030795 133.485282,31.1030795 C133.791255,31.1030795 134.032789,30.9834082 134.212077,30.7427507 C134.390049,30.5038466 134.478159,30.1628055 134.478159,29.719189 C134.478159,28.8091616 134.147638,28.3537096 133.485282,28.3537096 C133.181063,28.3537096 132.937775,28.4738192 132.758488,28.7144767 C132.579638,28.9542575 132.48846,29.2900384 132.48846,29.719189 M131.471912,29.719189 C131.471912,29.0800658 131.657337,28.5601753 132.025118,28.1586411 C132.393337,27.7571068 132.881227,27.5567781 133.485282,27.5567781 C134.122652,27.5567781 134.616241,27.7487781 134.968241,28.1349699 C135.319803,28.5207233 135.496022,29.0493808 135.496022,29.719189 C135.496022,30.3863671 135.317173,30.9163397 134.958159,31.3104219 C134.60046,31.7040658 134.109063,31.9017644 133.485282,31.9017644 C132.850104,31.9017644 132.3552,31.7023123 132.001885,31.3051616 C131.649008,30.9071342 131.471912,30.3789151 131.471912,29.719189" id="Fill-28" fill="#221F20"></path>
                <polyline id="Fill-30" fill="#221F20" points="129.729008 31.9015452 129.310816 31.9015452 128.05931 28.2886137 126.843748 31.9015452 126.425556 31.9015452 124.545008 26.0942027 125.604953 26.0942027 126.679364 29.5510795 127.84057 26.0942027 128.28594 26.0942027 129.451967 29.5510795 130.52331 26.0942027 131.582816 26.0942027"></polyline>
                <polyline id="Fill-32" fill="#221F20" points="120.477721 31.9015452 120.121337 31.9015452 118.971967 29.3283945 117.825666 31.9015452 117.466652 31.9015452 115.88594 27.6345863 116.9152 27.6345863 117.75509 30.1332164 118.779967 27.6345863 119.132405 27.6345863 120.191912 30.1494356 121.098871 27.6345863 122.060625 27.6345863"></polyline>
                <path d="M112.784044,29.2924055 L114.840811,29.2924055 C114.774181,28.6808986 114.435332,28.373611 113.82514,28.373611 C113.267112,28.373611 112.920373,28.6808986 112.784044,29.2924055 M115.740318,30.0279671 L112.748975,30.0279671 C112.767825,30.3611178 112.883112,30.6219397 113.093962,30.8060493 C113.304373,30.9910356 113.588866,31.0835288 113.946126,31.0835288 C114.391934,31.0835288 114.729907,30.966926 114.962236,30.736789 L115.341414,31.4824329 C114.998619,31.7616658 114.484427,31.9015014 113.800592,31.9015014 C113.163222,31.9015014 112.656921,31.7134466 112.286071,31.3395288 C111.914784,30.9660493 111.728044,30.4439671 111.728044,29.7741589 C111.728044,29.1153096 111.932318,28.5792 112.340866,28.1706521 C112.748975,27.7612274 113.237742,27.5569534 113.808921,27.5569534 C114.416482,27.5569534 114.903934,27.7371178 115.271715,28.1000767 C115.639058,28.4617205 115.823167,28.9241863 115.823167,29.4839671 C115.823167,29.6045151 115.795112,29.7864329 115.740318,30.0279671" id="Fill-34" fill="#221F20"></path>
                <polyline id="Fill-36" fill="#221F20" points="110.714915 31.9015452 107.934422 28.2759014 107.934422 31.8265863 106.955573 31.8265863 106.955573 26.0942027 107.445655 26.0942027 110.151627 29.5510795 110.151627 26.0942027 111.128285 26.0942027 111.128285 31.9015452"></polyline>
                <polyline id="Fill-38" fill="#221F20" points="189.523112 31.8411836 189.523112 26.1039781 190.541414 26.1039781 190.541414 30.9364164 193.135167 30.9364164 193.135167 31.8411836"></polyline>
                <path d="M200.663101,31.8411836 L200.663101,29.2132384 C200.663101,28.6622247 200.417184,28.3873753 199.923595,28.3873753 C199.776745,28.3873753 199.636471,28.4303342 199.500581,28.5166904 C199.365129,28.6021699 199.268252,28.7016767 199.213896,28.8138959 L199.213896,31.8411836 L198.235485,31.8411836 L198.235485,29.0611288 C198.235485,28.8551014 198.171047,28.6907178 198.043047,28.5688548 C197.915485,28.4474301 197.734882,28.3873753 197.502992,28.3873753 C197.380252,28.3873753 197.246115,28.4329644 197.101896,28.5254575 C196.956362,28.6161973 196.851595,28.7161425 196.786279,28.8257315 L196.786279,31.8411836 L195.807868,31.8411836 L195.807868,27.6465534 L196.480307,27.6465534 L196.680636,28.0156493 C196.952416,27.7175671 197.303978,27.5689644 197.734444,27.5689644 C198.290718,27.5689644 198.708471,27.7201973 198.990334,28.0235397 C199.114389,27.8845808 199.28491,27.7749918 199.504088,27.6921425 C199.722827,27.6092932 199.942882,27.5689644 200.161622,27.5689644 C200.629786,27.5689644 200.993184,27.7031014 201.253129,27.9700603 C201.513074,28.2374575 201.642827,28.6052384 201.642827,29.0734027 L201.642827,31.8411836" id="Fill-40" fill="#221F20"></path>
                <path d="M204.75897,28.4336658 L204.273271,28.4336658 L204.273271,27.6468164 L204.75897,27.6468164 L204.75897,26.7937753 L205.736066,26.4330082 L205.736066,27.6468164 L206.888942,27.6468164 L206.888942,28.4336658 L205.736066,28.4336658 L205.736066,30.2708164 C205.736066,30.5715288 205.783847,30.7828164 205.87897,30.9073096 C205.971901,31.0313644 206.137162,31.0927342 206.371682,31.0927342 C206.607079,31.0927342 206.826696,31.0304877 207.029216,30.901611 L207.029216,31.8028712 C206.802148,31.8804603 206.478641,31.9199123 206.059134,31.9199123 C205.640504,31.9199123 205.319627,31.8015562 205.095627,31.5648438 C204.870751,31.3294466 204.75897,30.9923507 204.75897,30.557063" id="Fill-42" fill="#221F20"></path>
                <path d="M211.291529,30.0432658 L208.295364,30.0432658 C208.313775,30.3781699 208.42994,30.6381151 208.640351,30.822663 C208.852077,31.0089644 209.13657,31.1010192 209.494268,31.1010192 C209.940953,31.1010192 210.278926,30.9839781 210.51257,30.7534027 L210.892186,31.5003616 C210.548515,31.7800329 210.033885,31.9198685 209.348734,31.9198685 C208.710049,31.9198685 208.203748,31.7318137 207.831145,31.3574575 C207.460734,30.9835397 207.272679,30.4610192 207.272679,29.7898959 C207.272679,29.1292932 207.47783,28.5927452 207.886378,28.1846356 C208.295364,27.7734575 208.785008,27.5691836 209.357063,27.5691836 C209.965501,27.5691836 210.453392,27.7497863 210.822488,28.1136219 C211.18983,28.4757041 211.374378,28.9381699 211.374378,29.4992658 C211.374378,29.6193753 211.346323,29.8017315 211.291529,30.0432658 M208.330433,29.3068274 L210.38983,29.3068274 C210.323638,28.6948822 209.984351,28.3875945 209.373282,28.3875945 C208.814816,28.3875945 208.466762,28.6948822 208.330433,29.3068274" id="Fill-44" fill="#221F20"></path>
                <g id="Group-48" transform="translate(211.287671, 25.782970)">
                    <mask id="mask-4" fill="white">
                        <use xlink:href="#path-3"></use>
                    </mask>
                    <g id="Clip-47"></g>
                    <path d="M3.32620274,6.0582137 L3.32620274,5.80484384 C3.24554521,5.89295342 3.10790137,5.97010411 2.91414795,6.03673425 C2.72170959,6.10380274 2.52269589,6.13711781 2.31491507,6.13711781 C1.73102466,6.13711781 1.27031233,5.95125479 0.934531507,5.58128219 C0.60050411,5.20911781 0.431736986,4.69361096 0.431736986,4.02950137 C0.431736986,3.36539178 0.624175342,2.82752877 1.00992877,2.41065205 C1.39480548,1.99377534 1.87699726,1.78599452 2.45738082,1.78599452 C2.77518904,1.78599452 3.06494247,1.85174795 3.32620274,1.98106301 L3.32620274,0.300843836 L4.30417534,0.0672 L4.30417534,6.0582137 L3.32620274,6.0582137 Z M3.32620274,2.86654247 C3.11754521,2.69952877 2.89968219,2.6162411 2.67305205,2.6162411 C2.28028493,2.6162411 1.97869589,2.73547397 1.76784658,2.97437808 C1.55612055,3.2141589 1.45091507,3.55607671 1.45091507,4.00276164 C1.45091507,4.8742137 1.87042192,5.30993973 2.7116274,5.30993973 C2.8045589,5.30993973 2.92028493,5.28188493 3.05749041,5.2262137 C3.19513425,5.16966575 3.2845589,5.11355616 3.32620274,5.05613151 L3.32620274,2.86654247 Z" id="Fill-46" fill="#221F20" mask="url(#mask-4)"></path>
                </g>
                <polyline id="Fill-49" fill="#221F20" points="193.918685 31.8227726 193.918685 27.6342795 194.907616 27.6342795 194.907616 31.8227726"></polyline>
                <path d="M194.422926,26.0113534 C194.578542,26.0113534 194.712679,26.067463 194.822707,26.1783671 C194.934049,26.2888329 194.990597,26.4225315 194.990597,26.5785863 C194.990597,26.7346411 194.934049,26.8696548 194.822707,26.9805589 C194.712679,27.0910247 194.578542,27.1458192 194.422926,27.1458192 C194.266871,27.1458192 194.131858,27.0910247 194.02183,26.9805589 C193.910049,26.8696548 193.855693,26.7346411 193.855693,26.5785863 C193.855693,26.4225315 193.910049,26.2888329 194.02183,26.1783671 C194.131858,26.067463 194.266871,26.0113534 194.422926,26.0113534" id="Fill-51" fill="#221F20"></path>
                <polyline id="Fill-53" fill="#221F20" points="202.724734 31.8227726 202.724734 27.6342795 203.714542 27.6342795 203.714542 31.8227726"></polyline>
                <path d="M203.229896,26.0113534 C203.385512,26.0113534 203.518773,26.067463 203.630115,26.1783671 C203.741019,26.2888329 203.797129,26.4225315 203.797129,26.5785863 C203.797129,26.7346411 203.741019,26.8696548 203.630115,26.9805589 C203.518773,27.0910247 203.385512,27.1458192 203.229896,27.1458192 C203.073841,27.1458192 202.938827,27.0910247 202.827923,26.9805589 C202.716581,26.8696548 202.662225,26.7346411 202.662225,26.5785863 C202.662225,26.4225315 202.717896,26.2888329 202.827923,26.1783671 C202.938827,26.067463 203.073841,26.0113534 203.229896,26.0113534" id="Fill-55" fill="#221F20"></path>
                <g id="Group-59" transform="translate(0.000000, 0.358312)">
                    <mask id="mask-6" fill="white">
                        <use xlink:href="#path-5"></use>
                    </mask>
                    <g id="Clip-58"></g>
                    <path d="M34.8332712,23.1618192 L34.8332712,7.49321644 C34.8332712,5.46713425 33.1806685,3.81409315 31.1541479,3.81409315 L16.8803945,3.81409315 C14.8543123,3.81409315 13.2012712,5.46713425 13.2012712,7.49321644 L13.2012712,23.1618192 L8.59940822,23.1618192 L8.59940822,3.81409315 L4.61606575,3.81409315 L4.61606575,25.9637918 C4.61606575,26.9785863 5.43798356,27.8062027 6.45321644,27.8062027 L15.3299288,27.8062027 C16.3451616,27.8062027 17.1723397,26.9790247 17.1723397,25.9637918 L17.1723397,11.0526685 C17.1723397,9.63151781 18.3313534,8.47294247 19.7525041,8.47294247 L28.2886137,8.47294247 C29.7045041,8.47294247 30.8622027,9.63020274 30.8622027,11.0456548 L30.8622027,25.9637918 C30.8622027,26.9785863 31.6898192,27.8062027 32.7046137,27.8062027 L39.4807233,27.8062027 L39.4807233,31.5155726 L31.6521205,31.5155726 C28.6620932,31.5155726 26.2235178,29.0769973 26.2235178,26.0869699 C26.2235178,21.7266411 26.2414904,17.3667507 26.2235178,13.0064219 C26.221326,12.5461479 25.8215452,12.1774904 25.3564493,12.1774904 L22.8074082,12.1774904 C22.3409973,12.1774904 21.9403397,12.5483397 21.9403397,13.0099288 L21.9403397,26.0869699 C21.9403397,29.0769973 19.5017644,31.5155726 16.5121753,31.5155726 L5.42877808,31.5155726 C2.43875068,31.5155726 0.000175342466,29.0769973 0.000175342466,26.0869699 L0.000175342466,0.0801753425 L34.0521205,0.0801753425 C37.0417096,0.0801753425 39.4807233,2.51875068 39.4807233,5.50877808 L39.4807233,23.1618192" id="Fill-57" fill="#D71829" mask="url(#mask-6)"></path>
                </g>
                <path d="M133.215737,4.3904 L150.76971,4.3904 L150.76971,19.0428932 C150.76971,20.5749479 149.657162,21.6848658 147.852011,21.6848658 L133.215737,21.6848658 L133.215737,4.3904 Z M265.114915,13.3499616 L258.968723,13.3499616 L258.968723,17.2745644 L264.381984,17.2745644 C264.81771,17.2745644 265.114915,17.0093589 265.114915,16.5363726 L265.114915,13.3499616 Z M268.268888,22.0373041 L267.983956,20.1878795 L269.132011,20.1878795 C269.853545,20.1878795 270.125326,19.7604822 270.125326,19.155989 L270.125326,6.5484274 L255.345271,6.5484274 L255.345271,4.51927671 L272.421874,4.51927671 L272.421874,19.6368658 C272.421874,20.8379616 271.567518,22.0373041 270.172668,22.0373041 L268.268888,22.0373041 Z M256.590203,10.1740712 L267.791956,10.1740712 L267.791956,8.33560548 L256.590203,8.33560548 L256.590203,10.1740712 Z M267.122586,17.0930849 C267.122586,18.2060712 266.475573,18.9407562 265.171901,18.9407562 L256.944395,18.9407562 L256.944395,11.7131397 L267.122586,11.7131397 L267.122586,17.0930849 Z M252.479299,20.9699068 L250.280066,21.6142904 C250.114367,21.1478795 249.912723,20.6450849 249.683463,20.1260712 L238.508011,21.6454137 L238.123573,19.6254685 C239.293984,18.9004274 240.2496,17.5809753 240.855408,16.3312219 L243.816066,10.2236055 L245.999079,11.0933041 L243.237436,16.9664 C242.881929,17.7234411 242.305929,18.7189479 241.526532,19.3554411 L248.854532,18.4239342 C248.295189,17.3731945 247.653436,16.346126 246.990203,15.5044822 L248.879956,14.400263 C250.234477,16.1703452 251.643792,18.7500712 252.479299,20.9699068 L252.479299,20.9699068 Z M249.368285,4.51927671 C249.967079,7.34492055 251.903737,10.5677151 254.653107,13.0654685 L252.793162,14.6062904 C250.251134,12.3509479 248.279408,9.25790685 247.502203,6.3564274 L244.260997,6.3564274 L244.260997,4.51927671 L249.368285,4.51927671 Z M235.716559,12.6385096 C238.055627,10.4147288 239.38823,8.44475616 240.076011,5.23598904 L242.458477,5.25089315 C241.808833,9.17286575 239.822641,12.5806466 237.128066,14.348537 L235.716559,12.6385096 Z M230.567189,11.020537 L230.567189,9.79094795 L224.930805,9.79094795 L224.930805,11.5110575 L230.04423,11.5110575 C230.378258,11.5110575 230.567189,11.3567562 230.567189,11.020537 L230.567189,11.020537 Z M218.891573,18.0114411 L218.36423,16.5490849 C222.044668,15.1923726 220.304395,12.2093589 218.664504,10.3200438 C219.898038,8.91598904 220.431956,7.66272877 220.612121,6.44103014 L218.034586,6.44103014 L218.034586,21.6883726 L216.098805,21.6883726 L216.098805,5.0194411 L222.333984,5.0194411 C222.380449,7.13494795 221.966641,8.67620822 220.614751,10.3441534 C222.662751,12.4824548 223.639847,16.5232219 218.891573,18.0114411 L218.891573,18.0114411 Z M229.793929,15.354126 C230.765764,14.8842082 231.555682,14.3770301 232.326751,13.7256329 L233.4016,15.0354411 C232.761162,15.6561534 231.677107,16.4153863 230.670203,16.9514959 C231.630641,18.3511671 232.975079,19.5150027 234.594805,20.6117699 L233.272723,21.971989 C230.149874,20.3373589 227.738038,17.1272767 227.102422,13.0339068 L224.930805,13.0339068 L224.930805,19.5733041 C225.923244,19.4580164 227.015189,19.2177973 227.914696,18.8767562 L228.168504,20.5867836 C226.988011,21.170674 224.687518,21.6287562 222.860011,21.6660164 L222.860011,5.02250959 L232.439408,5.02250959 L232.439408,11.1989479 C232.439408,12.2637151 231.89234,13.0339068 230.777162,13.0339068 L229.159627,13.0339068 C229.279737,13.8764274 229.49497,14.6444274 229.793929,15.354126 L229.793929,15.354126 Z M224.930805,8.30579726 L230.567189,8.30579726 L230.567189,6.47566027 L224.930805,6.47566027 L224.930805,8.30579726 Z M196.380668,7.41461918 L196.380668,5.49330411 L201.896942,5.49330411 C202.010915,5.08913973 202.11349,4.67533151 202.202915,4.2514411 L204.360504,4.23697534 C204.300449,4.66305753 204.22549,5.08256438 204.138258,5.49330411 L213.919299,5.49330411 L213.919299,7.41461918 L203.613545,7.41461918 C203.413216,8.00946849 203.182203,8.58371507 202.924011,9.13867397 L212.154477,9.13867397 L212.154477,19.2384 C212.154477,20.7393315 211.358422,21.7409753 209.967079,21.7409753 L208.462203,21.7409753 L208.248285,20.1804274 L209.26571,20.1804274 C209.712395,20.1804274 210.058696,19.8485918 210.058696,19.3247562 L210.058696,17.7379068 L202.625052,17.7379068 L202.625052,21.6695233 L200.508668,21.6695233 L200.508668,12.8796055 C199.404011,14.1591671 198.113052,15.2489205 196.684011,16.120811 L195.421545,14.4208658 C198.168285,12.4745644 200.059792,10.188537 201.225381,7.41461918 L196.380668,7.41461918 Z M202.625052,15.9910575 L210.058696,15.9910575 L210.058696,14.2560438 L202.625052,14.2560438 L202.625052,15.9910575 Z M202.625052,12.5745096 L210.058696,12.5745096 L210.058696,10.8434411 L202.625052,10.8434411 L202.625052,12.5745096 Z M77.0316274,19.0946192 L89.9670795,19.0946192 L89.9675178,21.2171397 L74.4716274,21.2171397 L74.4716274,21.0523178 L74.4707507,21.0523178 L74.4707507,9.53450959 L72.0632986,9.53450959 L72.0632986,7.55796164 L74.4707507,7.55796164 L74.4707507,4.7884274 L77.0316274,4.7884274 L77.0316274,7.55796164 L79.7967781,7.55796164 L79.7967781,4.43818082 L82.0494904,4.43818082 L82.0494904,7.55796164 L85.3748603,7.55796164 L85.3748603,4.43818082 L87.6258192,4.43818082 L87.6258192,7.55796164 L90.3655452,7.55796164 L90.3655452,9.53450959 L87.6258192,9.53450959 L87.6258192,14.8719342 C87.6258192,16.0730301 86.8902575,16.9344 85.4620932,16.9344 L79.7967781,16.9344 L79.7967781,9.53450959 L77.0316274,9.53450959 L77.0316274,19.0946192 Z M85.3748603,9.53450959 L82.0494904,9.53450959 L82.0494904,14.9981808 L84.691463,14.9981808 C85.0991342,14.9981808 85.3748603,14.7338521 85.3748603,14.3450301 L85.3748603,9.53450959 Z M187.283901,4.29001644 L187.283901,5.55379726 L193.390641,5.55379726 L193.390641,7.25812603 L191.143627,7.25812603 C191.056395,7.97571507 190.880175,8.96859178 190.598312,9.63313973 L193.591408,9.63313973 L193.591408,11.2813589 L187.532449,11.2813589 L187.532449,13.2443178 L192.289052,13.2443178 L192.289052,14.8574685 L187.532449,14.8574685 L187.532449,16.3917151 L191.991847,16.3917151 L191.991847,18.0053041 L187.532449,18.0053041 L187.532449,20.019989 L193.367408,20.019989 L193.367408,21.6879342 L179.404449,21.6879342 L179.404449,20.019989 L185.363025,20.019989 L185.363025,18.0053041 L180.952285,18.0053041 L180.952285,16.3917151 L185.363025,16.3917151 L185.363025,14.8574685 L180.180778,14.8574685 C180.156668,13.5875507 180.351737,12.8467288 180.712504,11.8889205 L182.406312,11.8889205 C182.274805,12.3158795 182.094641,12.8177973 182.094641,13.2443178 L185.363025,13.2443178 L185.363025,11.2813589 L179.227353,11.2813589 C179.047189,14.9968658 178.550093,18.546674 177.018038,21.9584 L174.965216,21.4998795 C176.493764,17.8606466 177.2096,14.3857973 177.11623,9.63313973 L181.226696,9.63313973 C180.946586,8.96859178 180.774312,7.97571507 180.684449,7.25812603 L177.110093,7.25812603 L177.110093,5.55379726 L185.047847,5.55379726 L185.047847,4.29001644 L187.283901,4.29001644 Z M183.656942,9.63313973 L188.165436,9.63313973 C188.584942,8.9984 188.832614,8.00289315 188.948778,7.25812603 L182.88149,7.25812603 C182.994586,8.00289315 183.242696,8.99752329 183.656942,9.63313973 L183.656942,9.63313973 Z M153.792614,9.40607123 L156.169381,9.40607123 L156.169381,6.00092055 L158.343627,6.00092055 L158.343627,9.40607123 L160.013326,9.40607123 L160.013326,11.1235507 L158.343627,11.1235507 L158.343627,19.1204822 C158.959079,18.9666192 159.530696,18.8438795 160.013326,18.6707288 L160.013326,20.5657425 C158.685107,21.0523178 155.968614,21.484537 153.939463,21.6848658 L153.631737,19.8284274 C154.436559,19.7767014 155.310641,19.6316055 156.169381,19.4926466 L156.169381,11.1235507 L153.792614,11.1235507 L153.792614,9.40607123 Z M162.881929,8.60782466 C163.619244,8.32990685 164.317107,8.10283836 165.279299,7.8643726 L165.279299,4.46667397 L167.314148,4.46667397 L167.314148,7.44618082 C168.693216,7.22130411 170.245874,7.09286575 171.981326,7.12048219 L171.981326,12.4368658 C171.981326,14.6005918 171.159847,16.5105096 169.40949,17.5533589 L168.804997,15.6140712 C169.968395,14.6939616 169.946038,13.2706192 169.946038,12.1545644 L169.946038,9.02908493 C169.064066,9.04048219 168.185162,9.13034521 167.314148,9.28420822 L167.314148,16.6854137 L165.279299,16.6854137 L165.279299,9.7523726 C164.431518,9.98689315 163.735847,10.2214137 162.881929,10.5374685 L162.881929,19.6526466 L167.910312,19.6526466 C169.433162,19.6526466 170.825381,19.2410301 172.3776,18.3367014 L173.014093,20.2133041 C171.589874,21.2127562 169.333216,21.6848658 167.77223,21.6848658 L160.6976,21.6848658 L160.6976,6.00092055 L162.881929,6.00092055 L162.881929,8.60782466 Z M94.1051616,4.43905753 L108.711627,4.43905753 L108.711627,10.8833315 C108.711627,12.0524274 107.863847,12.8331397 106.675901,12.8331397 L105.0816,12.8331397 C106.488723,14.2582356 108.817271,15.378674 111.118203,15.9757151 L110.088504,17.8794959 C108.567847,17.4529753 106.895956,16.8173589 105.595792,15.9415233 L105.595792,21.6848658 L103.335627,21.6848658 L103.335627,15.0100164 L104.411353,15.0100164 C103.608723,14.3428384 103.070422,13.7273863 102.520723,12.8331397 L100.19349,12.8331397 C99.6455452,13.7273863 99.1089973,14.3353863 98.3125041,15.0060712 L99.4346959,15.0060712 C99.1712438,17.7506192 98.0069699,20.2360986 96.1408877,21.9233315 L94.2826959,20.7822904 C95.9203945,19.3506192 96.8821479,17.272811 97.1618192,15.9121534 C95.8936548,16.7730849 94.1603945,17.4249205 92.6616548,17.8794959 L91.6288877,15.9757151 C93.983737,15.3186192 96.3184219,14.2420164 97.7023123,12.8331397 L94.1051616,12.8331397 L94.1051616,4.43905753 Z M102.38834,7.7504 L106.547025,7.7504 L106.547025,6.0013589 L102.38834,6.0013589 L102.38834,7.7504 Z M102.38834,9.32059178 L102.38834,11.2077151 L105.834258,11.2077151 C106.311189,11.2077151 106.547025,10.8973589 106.547025,10.4384 L106.547025,9.32059178 L102.38834,9.32059178 Z M96.2697644,11.2077151 L100.285545,11.2077151 L100.285545,9.32059178 L96.2697644,9.32059178 L96.2697644,11.2077151 Z M96.2697644,7.74996164 L100.285545,7.74996164 L100.285545,6.00092055 L96.2697644,6.00092055 L96.2697644,7.74996164 Z M113.035573,6.88552329 L120.375408,6.88552329 L120.375408,4.2624 L123.022203,4.2624 L123.022203,6.88552329 L130.363792,6.88552329 L130.363792,14.5028384 C130.363792,15.9516055 129.510751,16.8660164 128.068559,16.8660164 L123.022203,16.8660164 L123.022203,21.6848658 L120.375408,21.6848658 L120.375408,16.8660164 L113.035573,16.8660164 L113.035573,6.88552329 Z M123.022203,8.86119452 L123.022203,14.8877151 L126.92971,14.8877151 C127.5136,14.8877151 127.887956,14.5230027 127.887956,14.0092493 L127.887956,8.86119452 L123.022203,8.86119452 Z M115.510093,14.8877151 L120.375408,14.8877151 L120.375408,8.86119452 L115.510093,8.86119452 L115.510093,14.8877151 Z M136.403901,17.4529753 C138.339682,17.4314959 141.205655,17.1925918 143.042805,16.6604274 L143.042805,18.2762082 C141.083353,18.7439342 138.350641,19.0297425 136.403901,19.034126 L136.403901,17.4529753 Z M144.832175,6.56508493 C144.83086,6.9613589 144.836997,7.34404384 144.832175,7.71752329 L146.010915,7.71752329 C145.990751,7.4553863 145.930696,6.90963288 145.854422,6.62601644 L147.372449,6.62601644 C147.656504,7.36859178 147.738477,8.41056438 147.738477,9.28070137 L144.832175,9.28070137 C144.812011,11.0876055 144.859353,12.9558795 145.258696,14.360811 C145.614203,13.8264548 145.815408,12.6551671 145.822422,11.840263 L147.364997,11.840263 C147.336504,13.816811 146.817929,15.0902356 146.102093,16.1962082 C146.427353,16.6604274 146.848614,17.0448658 147.491244,17.3219068 L147.488614,19.2695233 C143.838422,18.1622356 142.950751,14.7193863 142.944614,9.28070137 L136.403463,9.28070137 L136.403463,7.71752329 L142.944614,7.71752329 L142.944614,6.56508493 L144.832175,6.56508493 Z M138.601381,14.7575233 L140.75897,14.7575233 L140.75897,11.4711671 L138.601381,11.4711671 L138.601381,14.7575233 Z M136.923792,16.0388384 L142.438312,16.0388384 L142.438312,10.1924822 L136.923792,10.1924822 L136.923792,16.0388384 Z M56.8632986,4.2624 L56.8632986,5.40300274 L60.5450521,5.40300274 L60.5450521,7.07226301 L59.3785863,7.07226301 C59.3689425,7.8284274 59.181326,8.97034521 58.8801753,9.98163288 L60.5450521,9.98163288 L60.5450521,11.5833863 L56.8510247,11.5833863 L56.8510247,12.5315507 L60.5450521,12.5315507 L60.5450521,14.2529753 L59.2707507,14.2529753 C59.283463,15.3891945 59.6446685,16.5447014 60.3210521,17.3539068 L59.4075178,19.4005918 C57.8921205,17.9671671 57.4493808,15.8871671 57.3796822,14.2529753 L56.8510247,14.2529753 L56.8510247,21.7080986 L54.7859288,21.7080986 L54.7859288,14.2529753 L54.2309699,14.2529753 C54.131463,16.3895233 53.6190247,18.8934137 51.8962849,20.7914959 L50.2112438,19.7907288 C51.9041753,17.7006466 52.2035726,16.0984548 52.295189,14.2529753 L50.7530521,14.2529753 L50.7530521,12.5315507 L54.7859288,12.5315507 L54.7859288,11.5833863 L50.7530521,11.5833863 L50.7530521,9.98163288 L52.8343671,9.98163288 C52.5446137,9.03171507 52.3697096,8.06601644 52.3429699,7.07226301 L51.1006685,7.07226301 L51.1006685,5.40300274 L54.7797918,5.40300274 L54.7797918,4.2624 L56.8632986,4.2624 Z M57.4923397,7.07226301 L54.2239562,7.07226301 C54.2445589,7.88848219 54.4777644,9.17900274 54.8196822,9.98163288 L56.9009973,9.98163288 C57.2319562,9.19215342 57.4590247,7.91215342 57.4923397,7.07226301 L57.4923397,7.07226301 Z M69.5032986,6.16355068 C67.9006685,6.63872877 65.7369425,6.99467397 63.8309699,7.06130411 C63.8528877,7.80387945 63.8559562,8.65078356 63.8261479,9.82733151 L70.1866959,9.82733151 L70.1866959,11.642126 L68.211463,11.642126 L68.211463,21.7080986 L66.1459288,21.7080986 L66.1459288,11.642126 L63.756011,11.642126 C63.5727781,14.9197151 63.0866411,18.778126 61.964011,21.4779616 L59.7678466,20.8817973 C61.8408329,16.1887562 61.5716822,9.92245479 61.5545863,7.21122192 L61.5436274,5.33330411 C64.3767233,5.22371507 67.3759562,4.73757808 69.255189,4.19094795 L69.5032986,6.16355068 Z M135.503956,6.07193425 L135.503956,19.9371397 L147.314586,19.9371397 C148.109764,19.9371397 148.477984,19.5277151 148.477984,18.8289753 L148.477984,6.07193425 L135.503956,6.07193425 Z" id="Fill-60" fill="#221F20"></path>
            </g>
        </g>
    </g>
</svg>