<?xml version="1.0" encoding="UTF-8"?>
<svg width="364px" height="114px" viewBox="0 0 364 114" version="1.1" xmlns="http://www.w3.org/2000/svg" xmlns:xlink="http://www.w3.org/1999/xlink">
    <!-- Generator: Sketch 41.2 (35397) - http://www.bohemiancoding.com/sketch -->
    <title>Group 91</title>
    <desc>Created with Sketch.</desc>
    <defs></defs>
    <g id="Page-1" stroke="none" stroke-width="1" fill="none" fill-rule="evenodd">
        <g id="Group-91" transform="translate(0.000000, -1.000000)">
            <path d="M264.633898,38.5377741 C264.633898,38.5377741 257.197711,47.7996017 258.971227,46.3671793 C260.744742,44.9322483 268.729336,33.8968259 270.122992,31.6741879 C271.426086,29.6020672 272.978227,27.0407655 273.934164,25.761369 C274.666211,24.7804983 275.783148,23.0219552 276.223383,23.5838862 C276.671164,24.1533431 278.047211,25.4653517 277.576789,26.54155 C277.101336,27.612731 273.992023,37.8203086 275.695102,38.1966017 C277.408242,38.5804207 281.813102,36.7315672 284.147602,35.3744034 C286.47707,34.0172397 294.80882,29.576981 298.179758,26.3684552 C301.54818,23.1599293 305.560602,19.3342828 306.541695,18.4286707 C307.520273,17.5230586 310.669836,14.8563948 310.669836,14.8563948 C310.669836,14.8563948 311.059758,14.4023345 311.301258,14.8212741 C311.547789,15.2477397 312.161602,16.1357914 312.161602,16.1357914 C312.161602,16.1357914 312.408133,16.5597483 311.854695,17.0113 C311.301258,17.4653603 307.238523,21.9532828 305.402117,23.6817224 C303.570742,25.4101621 300.88657,27.4571966 300.033773,28.1997483 C299.186008,28.9372828 297.58607,30.0260241 294.879258,32.8883603 C291.294492,36.673869 274.84482,53.9206362 265.745805,67.0156362 C260.709523,74.26555 254.29468,82.5991879 248.838289,90.5038517 C244.443492,96.8682224 240.624773,103.325412 239.007227,105.906783 C235.382211,111.709222 236.876492,112.908343 235.53818,112.802981 C234.194836,112.697619 233.731961,111.548671 234.665258,109.516688 C235.626227,107.442059 250.840727,80.9986879 265.217523,64.4919638 C268.475258,60.7641534 281.352742,44.00155 284.84443,40.7127483 C288.338633,37.4214379 290.92218,33.6986448 290.92218,33.6986448 C290.92218,33.6986448 280.909992,40.1031534 277.795648,40.384119 C274.688852,40.6701017 273.27507,37.4214379 273.659961,34.2455241 C274.049883,31.0746276 276.386898,24.4995328 273.280102,29.6346793 C270.168273,34.7748431 264.475414,44.0517224 259.776227,48.9134293 C256.058133,52.7616534 254.402852,53.8503948 253.721117,54.4223603 C253.041898,54.9943259 252.649461,54.9717483 252.355133,54.6406103 C252.065836,54.3044552 251.547617,53.2834466 251.547617,53.2834466 C251.547617,53.2834466 251.358945,52.8645069 251.940055,52.0617483 C252.521164,51.2489552 262.686805,37.361231 263.006289,37.0802655 C263.325773,36.8068259 263.642742,36.5258603 263.766008,36.7817397 C263.884242,37.0326017 264.779805,38.3696966 264.633898,38.5377741 Z" id="Fill-2" fill="#D7BDB3"></path>
            <path d="M311.347294,46.9283578 C311.583763,47.2218664 310.569966,47.879125 310.403934,47.8690905 C310.247966,47.8615647 311.060513,46.5646078 311.347294,46.9283578 M313.108231,47.6734181 C313.105716,45.862194 311.810169,43.4187974 309.3197,45.240056 C307.923528,46.2710991 307.284559,48.824875 307.505934,49.2563578 C306.512263,49.6677716 305.279606,50.207125 304.092231,50.2196681 C302.907372,50.2322112 301.717481,50.3400819 302.057091,49.5297974 C302.399216,48.7119871 303.148872,47.5053405 303.123716,47.078875 C303.098559,46.6549181 302.514934,46.0503405 302.384122,45.7217112 C302.260856,45.385556 301.536356,45.240056 301.400512,45.6012974 C301.259637,45.9650474 300.753997,47.0512802 298.484903,48.2529095 C297.518903,48.7596509 296.517684,49.3316164 296.517684,49.3316164 C296.517684,49.3316164 295.856075,49.552375 296.366747,48.7119871 C296.874903,47.8665819 297.752856,46.5972198 297.564184,46.0954957 C297.375512,45.6012974 296.661075,44.7383319 296.661075,44.7383319 C296.661075,44.7383319 296.406997,44.4297716 295.609544,44.7483664 C294.814606,45.0644526 292.090184,45.9399612 290.646216,45.8822629 C289.187153,45.8245647 288.990934,45.6589957 288.641262,45.1572716 C288.284044,44.6605647 287.426216,44.6103922 287.551997,44.9766509 C287.682809,45.3429095 287.873997,46.2234353 288.314231,46.7979095 C288.492841,47.0236853 289.257591,47.5705647 289.222372,47.9644181 C289.177091,48.3632888 288.807294,49.1760819 288.334356,49.7279784 C287.863934,50.2823836 287.023716,51.1202629 286.558325,51.4739784 C286.087903,51.827694 285.511825,52.1161853 285.461512,51.6872112 C285.406169,51.1930129 285.074106,50.0265043 284.88795,49.8784957 C284.701794,49.7304871 283.982325,49.7555733 283.469137,50.5031422 C282.953434,51.2557284 282.490559,52.0609957 282.669169,52.918944 C282.855325,53.7794009 283.622591,55.3071509 284.115653,55.3497974 C284.608716,55.3874267 286.1357,54.8530905 286.671528,54.373944 C287.209872,53.8897802 290.278934,51.5667974 290.673887,49.7982198 C290.774512,49.3466681 290.60345,48.1876853 290.608481,48.0522198 C290.608481,47.9217716 291.300278,47.9694353 291.665044,47.8690905 C292.022263,47.7837974 292.651169,47.6934871 292.920341,47.6959957 C293.186997,47.7035216 294.578137,47.2645129 294.200794,47.879125 C293.830997,48.5012629 293.677544,49.8157802 293.866216,50.2823836 C294.054888,50.7414612 294.452356,52.078556 295.217106,52.1111681 C295.682497,52.1287284 297.342809,51.6495819 297.976747,51.132806 C298.6132,50.623556 300.419419,49.2337802 300.537653,49.7681164 C300.663434,50.2924181 301.2697,51.9606509 302.804231,52.171375 C305.770153,52.5802802 307.971325,51.2732888 307.971325,51.2732888 C307.971325,51.2732888 308.791419,53.2601164 310.569966,53.3228319 C312.353544,53.3830388 311.946012,52.296806 311.946012,52.0609957 C311.946012,51.8302026 311.598856,51.132806 311.073091,51.1227716 C310.547325,51.1202629 309.093294,51.2557284 309.460575,50.6988147 C309.835403,50.1519353 313.115778,49.479625 313.108231,47.6734181" id="Fill-4" fill="#D7BDB3"></path>
            <path d="M65.2877234,16.605656 C64.8147859,16.7235612 55.0491297,19.0666129 51.3234891,18.8308026 C51.3234891,18.8308026 46.6041766,19.2146216 44.7501609,16.3999491 C43.7766141,14.9173543 44.6872703,15.4190784 44.8985828,15.5645784 C45.1124109,15.7176043 46.8129734,16.6583371 49.3185359,16.7060009 C52.1838328,16.7561733 55.8692234,16.6006388 60.6740672,15.4065353 C61.7507547,15.1406216 63.1066766,14.7618198 64.3091453,14.443225 C66.8172234,13.788475 69.2221609,13.0885698 69.8611297,12.8101129 C69.8611297,12.8101129 70.7189578,12.5140957 70.9805828,12.6896991 C71.2472391,12.8653026 72.2660672,13.933975 72.2660672,13.933975 C72.2660672,13.933975 72.5151141,14.172294 72.2258172,14.5786905 C71.9365203,14.9825784 63.0815203,26.7781129 58.3370516,35.3325095 C56.3748641,38.8847164 49.0518797,52.1176905 46.9764891,55.9734405 C44.8985828,59.8316991 38.2472703,70.8545784 34.6750828,73.6441647 C32.0085203,75.7213026 28.8715359,79.283544 23.7924891,79.1556043 C18.7184734,79.025156 11.4684422,75.8893802 5.65231719,62.2776043 C5.19195781,61.1938802 0.377051562,51.6811905 0.678926562,51.181975 C0.980801562,50.6902853 0.611004687,50.2236819 1.96944219,49.3657336 C3.32536406,48.510294 7.27237969,46.7617853 11.8583641,47.5494922 C13.8935047,47.9057164 13.4532703,48.6833888 13.3224578,48.7511216 C13.1891297,48.8238716 12.9803328,49.1575181 11.7778641,49.1525009 C10.5829422,49.1525009 6.94534844,49.4133974 5.28503594,50.0731647 C3.62723906,50.7354405 2.86752031,50.9963371 2.59834844,51.856794 C2.33169219,52.7222681 8.05725469,66.5046302 11.0533641,70.4431647 C14.0570203,74.3867164 17.2367703,77.4171302 22.9044734,77.2515612 C28.5746922,77.1035526 34.2071766,71.624725 38.3378328,65.7068888 C39.2560359,64.3873543 51.8039734,43.4579319 53.9347078,38.887225 C55.0994422,36.393656 62.1431922,25.1324578 63.6903016,22.8947681 C65.2399266,20.6595871 67.5241141,17.0998543 67.9115203,16.5203629 C68.2989266,15.9383629 68.1932703,15.7176043 67.2750672,16.0086043 C65.7153797,16.5053112 65.7631766,16.4852422 65.2877234,16.605656" id="Fill-6" fill="#D7BDB3"></path>
            <path d="M79.069575,54.5595819 C79.3010125,54.8530905 78.2847,55.5128578 78.1237,55.5003147 C77.9677312,55.4927888 78.7827937,54.2008491 79.069575,54.5595819 M70.3957,43.5116164 C75.8445437,33.858444 84.3247156,19.0249698 84.4932625,18.6737629 C84.7347625,18.1569871 84.7599187,17.8835474 84.6467156,17.7330302 C84.5284812,17.5825129 84.2492469,17.3316509 83.7737937,17.0506853 C83.2983406,16.762194 83.1474031,17.1309612 83.1474031,17.1309612 C83.1474031,17.1309612 79.6255281,23.7913491 78.7224187,25.1108836 C77.8167937,26.4354353 67.1304187,45.4708491 65.706575,47.7060302 C64.2852469,49.9462284 60.2828875,58.5457802 60.0413875,58.917056 C59.7973719,59.2908405 59.9181219,59.4012198 59.9181219,59.4012198 C59.9181219,59.4012198 60.6074031,60.703194 60.7633719,60.8938491 C60.9143094,61.0895216 61.1809656,61.2575991 61.4652312,61.172306 C61.7494969,61.0794871 61.7369187,60.8512026 62.1268406,60.1713664 C62.5117312,59.5115991 62.9318406,58.917056 63.6915594,57.7229526 C64.4537937,56.5313578 65.3242,55.4175302 65.8222937,54.810444 C66.3203875,54.2058664 65.8977625,55.0036078 66.73295,56.7420819 C68.0712625,59.5241422 69.5781219,59.737375 71.2912625,59.9205043 C73.0044031,60.1136681 75.3036844,59.0951681 75.9074344,58.917056 C76.5036375,58.738944 76.3627625,58.7815905 76.7602312,59.5316681 C77.1577,60.2717112 78.5412937,61.3027543 78.9941062,61.4131336 C79.4494344,61.5310388 79.5953406,61.2676336 79.61295,61.0794871 C79.6355906,60.8938491 79.4142156,60.6580388 79.1374969,60.3971422 C79.1374969,60.3971422 78.4532469,59.8753491 78.0205594,59.5065819 C77.5828406,59.1378147 77.6230906,58.6787371 77.6130281,58.3501078 C77.6029656,58.0189698 78.3928719,57.7806509 79.2733406,56.8825647 C79.6884187,56.4686422 81.1801844,54.9935733 81.1902469,54.4692716 C81.1977937,53.9223922 80.7877469,53.1547543 80.6015906,52.951556 C80.4129187,52.7433405 79.7890437,51.6495819 78.3777781,52.3469784 C76.9614812,53.044375 76.1036531,55.5454698 76.0130906,56.0948578 C75.9275594,56.6417371 75.18545,56.7220129 73.7917937,57.2939784 C71.7792937,58.1243319 69.3617781,57.8007198 68.6096062,57.5222629 C67.85995,57.2463147 68.202075,55.5103491 68.2800594,54.5344957 C68.3605594,53.5611509 68.1115125,53.3178147 67.6737937,52.6028578 C67.236075,51.8904095 66.390825,51.7674871 66.0034187,51.7298578 C65.6210437,51.6897198 66.0738562,51.060056 66.0738562,51.060056 C66.0738562,51.060056 67.8197,48.0798147 70.3957,43.5116164" id="Fill-8" fill="#D7BDB3"></path>
            <path d="M357.97717,46.3734509 C357.97717,46.3734509 357.544483,47.2991319 357.21242,47.6428129 C356.882873,47.986494 356.50553,48.6914164 356.349561,49.110356 C356.191077,49.5242784 355.836373,50.1363819 355.921905,50.9993474 C356.007436,51.8623129 356.437608,52.6851405 356.711811,52.5170629 C356.986014,52.3489853 358.495389,50.9215802 358.671483,50.4298905 C358.857639,49.9407095 359.234983,49.5017009 359.562014,49.4314595 C359.878983,49.3662353 360.261358,49.0752353 360.465123,48.7315543 C360.661342,48.3928905 361.969467,45.5732009 362.409702,44.9134336 C362.839873,44.2611922 363.825998,42.7158819 363.856186,42.4775629 C363.886373,42.2292095 363.680092,41.3863129 363.483873,41.0401233 C363.29017,40.6813905 362.849936,40.5358905 362.724155,40.6537957 C362.598373,40.7742095 361.914123,41.4339767 362.032358,40.545925 C362.148077,39.6603819 364.057436,26.1665112 358.241311,15.1009853 C358.241311,15.1009853 354.31442,8.71654569 348.712123,4.94358017 C345.308483,2.643175 340.035733,1.697425 338.908733,1.35123534 C337.786764,0.995011207 337.746514,0.867071552 337.487405,1.07277845 C337.235842,1.27597672 336.476123,1.51429569 337.230811,1.73505431 C337.977952,1.95832155 341.570264,3.19005431 344.360092,4.28632155 C347.157467,5.37757155 353.071702,7.90124397 357.10928,15.0031491 C357.10928,15.0031491 361.831108,21.0664853 360.907873,36.2436405 C360.480217,43.3054078 358.767077,44.8833302 357.97717,46.3734509" id="Fill-10" fill="#D7BDB3"></path>
            <path d="M334.948384,47.5630388 C334.7899,47.5504957 335.607478,46.2560474 335.894259,46.6172888 C336.128213,46.9107974 335.106869,47.5705647 334.948384,47.5630388 M351.863447,49.572444 C351.342713,49.6150905 351.013166,50.0842026 349.823275,50.134375 C348.633384,50.1920733 347.916431,50.3476078 348.117681,50.008944 C348.326478,49.6652629 349.136509,48.4711595 349.028338,47.5780905 C348.920166,46.6925474 348.266103,45.8396164 348.012025,46.0854612 C347.765494,46.3237802 347.370541,47.4777457 346.867416,47.8665819 C346.369322,48.2529095 344.470025,49.2789353 343.622259,49.4670819 C342.784556,49.6477026 341.836166,49.8308319 342.394634,49.4219267 C342.940525,49.0080043 343.297744,48.3733233 343.234853,47.8766164 C343.166931,47.389944 342.709088,46.6850216 342.5179,46.5069095 C342.321681,46.3338147 341.974525,46.4517198 341.715416,46.7427198 C341.466369,47.0362284 340.507916,48.3306767 339.559525,48.7571422 C338.611134,49.1810991 336.870322,49.697875 336.452728,49.7154353 C336.027588,49.7304871 335.806213,49.7054009 336.253994,49.4369784 C336.706806,49.1760819 338.065244,47.9167543 337.788525,46.5997284 C337.514322,45.2902284 336.706806,43.3059095 335.630119,43.9757112 C334.555947,44.6505302 334.027666,45.2350388 333.693088,45.7743922 C333.366056,46.3087284 332.807588,46.9659871 332.722056,47.6784353 C332.636525,48.3933922 332.724572,49.063194 332.550994,49.1810991 C332.372384,49.3015129 331.899447,49.3190733 331.751025,49.5398319 C331.600088,49.7580819 331.451666,49.677806 331.011431,49.697875 C330.561134,49.7154353 329.7184,49.7731336 329.250494,49.8910388 C328.770009,50.0039267 327.466916,49.9336853 327.771306,49.4219267 C328.078213,48.9051509 328.659322,47.9067198 328.327259,47.1340647 C327.992681,46.3664267 327.482009,45.8120216 327.212838,46.1080388 C326.928572,46.4015474 326.173884,47.5454784 325.316056,48.2679612 C324.460744,48.9929526 323.859509,49.5774612 323.605431,49.7455388 C323.361416,49.916125 322.166494,50.3626595 322.496041,49.8032371 C322.828103,49.2337802 324.500994,46.9258491 324.289681,46.5018922 C324.068306,46.0754267 323.444431,45.0067543 323.243181,44.9064095 C323.046963,44.803556 322.8759,44.9239698 322.624338,45.1397112 C322.372775,45.3604698 321.965244,46.0453233 321.615572,46.185806 C321.270931,46.331306 320.868431,46.589694 320.898619,46.2234353 C320.926291,45.8546681 320.762775,45.458306 320.390463,45.4758664 C320.023181,45.4934267 319.504963,45.7668664 318.959072,46.6373578 C318.936431,46.6699698 317.193103,48.4510905 316.624572,49.115875 C316.051009,49.7731336 316.098806,50.1970905 316.232134,50.6210474 C316.362947,51.0399871 316.536525,51.5617802 316.614509,51.8502716 C316.700041,52.1487974 316.873619,52.3244009 317.175494,52.4071853 C317.484916,52.4874612 317.779244,52.3595216 317.995587,52.2064957 C318.216963,52.0609957 319.492384,50.9245905 319.610619,50.8292629 C319.726338,50.7264095 319.945197,50.5683664 320.033244,50.809194 C320.116259,51.0500216 320.752713,52.3820991 320.853338,52.5827888 C320.953963,52.7884957 321.228166,53.0192888 321.557713,53.0393578 C321.889775,53.0594267 322.858291,52.627944 323.336259,52.3218922 C323.814228,52.0133319 325.321088,50.8694009 325.670759,50.6586767 C326.017916,50.4529698 326.387713,50.1795302 326.505947,50.4855819 C326.609088,50.789125 326.883291,51.900444 328.022869,52.0183491 C329.164963,52.1412716 330.052978,51.900444 331.12715,51.5116078 C332.198806,51.1227716 333.182416,50.9170647 333.182416,50.9170647 C333.182416,50.9170647 334.178603,52.0609957 335.210009,52.0735388 C336.498009,52.0961164 338.724338,50.6611853 339.270228,50.6586767 C339.816119,50.6536595 339.785931,51.0625647 339.843791,51.3435302 C339.843791,51.3435302 340.138119,52.4147112 341.3909,52.2039871 C342.985806,51.9380733 346.560509,50.0189784 346.615853,50.3476078 C346.676228,50.6837629 346.937853,52.4197284 348.261072,52.4197284 C349.584291,52.4172198 352.125072,51.6495819 352.182931,51.0123922 C352.245822,50.3701853 352.384181,49.5373233 351.863447,49.572444" id="Fill-12" fill="#D7BDB3"></path>
            <path d="M179.941609,42.8812 C180.057328,42.7106138 180.130281,42.0684069 179.783125,41.9831138 C179.438484,41.9028379 174.502828,42.5927086 173.385891,42.7432259 C172.261406,42.8962517 170.450156,43.0367345 170.324375,42.9915793 C170.201109,42.9414069 169.997344,42.9690017 170.241359,42.5525707 C170.364625,42.3343207 171.557031,40.5632345 172.817359,38.9501914 C174.044984,37.372269 175.338016,35.9548983 175.433609,35.8344845 C175.629828,35.6036914 175.9795,35.3628638 175.916609,35.076881 C175.85875,34.7959155 175.325437,33.9705793 175.282672,33.8125362 C175.237391,33.6570017 174.877656,33.1778552 174.751875,33.3333897 C174.626094,33.4889241 174.460062,33.6570017 174.460062,33.6570017 C174.460062,33.6570017 170.231297,38.9251052 169.328187,40.2320966 C168.420047,41.5340707 167.232672,43.3854328 167.232672,43.3854328 C167.232672,43.3854328 165.987437,43.588631 164.719562,43.5384586 C163.451687,43.4882862 160.619094,43.3854328 160.196469,43.3076655 C159.781391,43.2273897 159.507187,43.1546397 158.971359,42.8661483 C158.616656,42.6704759 158.307234,42.3318121 158.126109,42.0257603 C157.670781,41.2430707 157.253187,40.6936828 157.016719,40.7739586 C156.777734,40.8542345 156.546297,41.3409069 156.672078,41.6218724 C156.792828,41.8953121 157.502234,43.6337862 157.776437,44.0201138 C158.053156,44.4114586 158.651875,45.0235621 159.726047,45.2142172 C160.800219,45.407381 161.04675,45.5177603 161.947344,45.5654241 C162.842906,45.6130879 164.156062,45.5227776 164.601328,45.5127431 C165.041562,45.5077259 165.63525,45.4224328 165.340922,45.8764931 C165.051625,46.3230276 162.858,49.1602776 162.226578,50.1837948 C161.592641,51.2098207 160.271937,53.0712172 159.882016,53.8488897 C159.487062,54.6340879 159.029219,55.6425534 159.039281,56.0364069 C159.051859,56.4252431 159.185187,56.8216052 159.27575,56.9947 C159.368828,57.1677948 159.454359,57.483881 159.643031,57.7222 C159.826672,57.960519 160.324766,58.3920017 160.553687,57.8677 C160.782609,57.3358724 160.835437,57.1301655 161.024109,56.9620879 C161.215297,56.7940103 161.333531,56.2496397 161.371266,56.0063034 C161.409,55.7755103 161.371266,55.1734414 161.547359,54.8799328 C161.725969,54.5889328 167.738312,46.0721655 167.886734,45.8689672 C168.030125,45.665769 168.173516,45.3923293 168.915625,45.3271052 C169.657734,45.2568638 179.518984,43.8194241 179.961734,43.7943379 C180.401969,43.7692517 180.628375,43.5083552 180.452281,43.3929586 C180.278703,43.2850879 179.830922,43.0492776 179.941609,42.8812" id="Fill-14" fill="#D7BDB3"></path>
            <path d="M177.103984,46.8867147 C177.033547,46.7236543 176.827266,46.5129302 176.527906,46.8214905 C176.527906,46.8214905 176.032328,47.3558267 175.710328,47.9152491 C175.388328,48.4696543 174.751875,49.4103871 174.641187,49.6737922 C174.535531,49.9422147 174.356922,50.2984388 174.341828,50.5593353 C174.326734,50.8177233 174.356922,51.4047405 174.482703,51.5126112 C174.608484,51.6179733 174.885203,51.7484216 174.882688,51.8989388 C174.877656,52.0444388 175.005953,52.3931371 175.099031,52.5336198 C175.192109,52.6690853 175.549328,52.8321457 175.577,52.5888095 C175.594609,52.3454733 175.828562,51.7559474 175.904031,51.507594 C175.974469,51.2567319 176.376969,50.6220509 176.595828,50.3410853 C176.817203,50.0726629 177.773141,48.8785595 177.888859,48.7606543 C178.004578,48.6452578 178.095141,48.306594 177.919047,48.0005422 C177.740437,47.6969991 177.179453,47.0397405 177.103984,46.8867147" id="Fill-16" fill="#D7BDB3"></path>
            <path d="M186.882722,44.9452931 C186.324253,44.3733276 185.481519,44.2955603 185.086566,45.0682155 C184.694128,45.8509052 184.052644,46.7213966 183.911769,47.4388621 C183.775925,48.1613448 183.720581,49.5084741 183.406128,49.5636638 C183.086644,49.6213621 182.203659,50.0478276 182.100519,50.3614052 C181.999894,50.6749828 182.243909,51.2720345 182.3068,51.4927931 C182.362144,51.7085345 182.294222,52.1525603 182.699238,52.2529052 C183.106769,52.3607759 183.924347,52.4009138 184.301691,52.5012586 C184.674003,52.5965862 185.277753,52.4862069 185.310456,52.2629397 C185.348191,52.0446897 185.318003,51.8264397 185.323034,51.5128621 C185.330581,51.2017931 184.832488,49.3730086 185.506675,48.2140259 C186.0903,47.2256293 186.824863,46.6386121 187.126738,47.3360086 C187.431128,48.0308966 187.333019,48.0635086 187.57955,48.259181 C187.831113,48.4498362 188.273863,48.3921379 188.218519,47.8552931 C188.165691,47.3234655 187.894003,46.5608448 187.672628,46.3099828 C187.672628,46.3099828 187.443706,45.5197672 186.882722,44.9452931" id="Fill-18" fill="#D7BDB3"></path>
            <path d="M240.081902,42.0679052 C237.968777,45.8509052 230.955214,47.8452586 229.918777,48.1262241 C229.546464,46.7540086 229.959027,45.5724483 229.989214,45.4796293 C230.021917,45.4068793 230.026948,45.3316207 230.034495,45.2588707 C230.592964,43.7938362 231.574058,42.0252586 233.407948,39.5592845 C236.064448,35.9619224 238.617808,34.0378103 240.803886,32.6078966 C242.987448,31.1804914 243.007573,32.8311638 243.01512,33.2099655 C243.155995,37.6928707 240.55987,41.2124655 240.081902,42.0679052 M213.139558,49.225 C212.588636,49.4281983 211.766027,49.6640086 211.55723,49.7016379 C211.345917,49.7417759 211.149698,49.7091638 211.413839,49.4056207 C211.753448,49.0142759 212.565995,48.3143707 213.217542,48.1613448 C213.217542,48.1613448 213.791105,47.9807241 213.778527,48.3770862 C213.773495,48.7709397 213.69048,49.0192931 213.139558,49.225 M192.956698,49.3278534 C192.410808,49.5285431 191.590714,49.7643534 191.371855,49.8019828 C191.168089,49.8396121 190.969355,49.8120172 191.23098,49.5084741 C191.573105,49.1171293 192.385652,48.4197328 193.044745,48.2616897 C193.044745,48.2616897 193.608245,48.081069 193.598183,48.4799397 C193.595667,48.8737931 193.505105,49.1296724 192.956698,49.3278534 M233.216761,53.1158707 C233.309839,53.1459741 233.392855,53.1660431 233.485933,53.1660431 C233.785292,53.1660431 233.820511,52.8725345 233.933714,52.5715 C234.077105,52.1776466 234.207917,51.9543793 233.830573,51.7336207 L231.875933,50.6223017 C231.58412,50.3864914 231.116214,50.1657328 231.402995,49.9876207 C231.737573,49.7844224 238.383855,48.2014828 241.618948,42.6674655 C242.054152,41.929931 244.813792,37.6552414 243.888042,32.6806466 C243.787417,32.1638707 243.208823,30.8041983 243.083042,30.5157069 C242.964808,30.2196897 242.109495,29.6803362 241.135948,30.2297241 C240.167433,30.7791121 237.923495,31.744931 234.758839,35.2093362 C231.591667,38.6712328 230.386683,40.474931 229.526339,42.1757759 C228.650902,43.8741121 228.268527,45.4796293 228.248402,46.6085086 C228.228277,47.7373879 228.268527,47.9706897 228.306261,48.113681 C228.346511,48.2641983 228.406886,48.4724138 228.092433,48.5301121 C227.944011,48.5602155 226.535261,48.8788103 224.852308,49.1070948 C222.958042,49.3604655 220.721652,49.516 219.720433,49.5410862 C217.831198,49.5987845 217.056386,49.3554483 216.794761,49.0368534 C216.525589,48.71575 215.94448,48.081069 215.718073,48.0509655 C215.489152,48.0308966 215.048917,48.0860862 214.948292,47.7248448 C214.847667,47.3661121 214.203667,45.7054052 213.257792,45.8383621 C212.314433,45.9663017 211.803761,46.2924224 211.05662,46.9271034 C210.30948,47.5617845 209.454167,48.5526897 209.40637,49.1798448 C209.351027,49.8120172 209.537183,50.1055259 209.154808,50.1406466 C208.77998,50.1782759 206.865589,50.2284483 206.536042,50.0152155 C206.206495,49.7969655 205.726011,49.6865862 206.06562,49.1698103 C206.412777,48.6530345 206.520948,48.5050259 206.442964,48.1688707 C206.359948,47.8352241 205.803995,47.0525345 205.60023,46.9220862 C205.393948,46.7941466 205.159995,46.9998534 204.837995,47.2431897 C204.521027,47.4915431 203.585214,48.2892845 203.313527,48.2842672 C203.039323,48.27925 202.890902,48.2968103 202.835558,47.9405862 C202.777698,47.5843621 202.511042,47.1428448 202.407902,46.9923276 C202.307277,46.8468276 202.355073,46.5357586 202.229292,46.4680259 C202.103511,46.4028017 201.89723,46.294931 201.663277,46.4579914 C201.431839,46.6210517 200.508605,46.9095431 200.174027,47.2958707 C200.174027,47.2958707 199.104886,48.2692155 198.845777,48.6053707 C198.591698,48.9390172 198.470948,49.1397069 198.501136,49.6389224 C197.359042,49.5937672 196.820698,49.3880603 196.611902,49.132181 C196.340214,48.8186034 195.769167,48.1814138 195.535214,48.1563276 C195.308808,48.1312414 194.861027,48.1889397 194.767948,47.8327155 C194.667323,47.4714741 194.025839,45.8082586 193.077448,45.9387069 C192.129058,46.0716638 191.623417,46.3952759 190.876277,47.0324655 C190.131652,47.6646379 189.273823,48.6605603 189.220995,49.2877155 C189.220995,49.2877155 188.348073,52.1500517 190.93162,52.300569 C191.895105,52.3632845 194.204448,51.7938276 194.649714,51.5504914 C195.102527,51.3046466 195.580495,50.9885603 195.907527,51.0261897 C196.234558,51.0588017 196.725105,51.6106983 197.852105,51.8063707 C199.577823,52.1099138 199.88473,52.06225 200.065855,51.9117328 C200.118683,51.8991897 200.179058,51.8766121 200.22937,51.8515259 C200.360183,51.7938276 200.735011,51.6307672 201.205433,51.427569 L201.215495,51.427569 L201.245683,51.4125172 C202.370167,50.9258448 204.010355,50.223431 204.176386,50.1431552 C204.41537,50.0327759 204.727308,49.899819 204.810323,50.17075 C204.895855,50.4391724 205.222886,51.62575 206.04298,52.0271293 C206.865589,52.4184741 207.856745,52.5715 208.792558,52.4686466 C209.733402,52.3632845 210.14848,52.2579224 211.11448,52.1977155 C212.077964,52.1425259 214.387308,51.6884655 214.830058,51.4501466 C215.285386,51.2043017 215.763355,50.8806897 216.090386,50.9208276 C216.417417,50.9559483 216.890355,51.5956466 218.029933,51.7035172 C219.144355,51.8113879 223.297652,51.8841379 228.779198,50.5269741 C229.043339,50.4592414 229.211886,50.5345 229.325089,50.6498966 C229.325089,50.6498966 230.975339,52.3407069 233.216761,53.1158707" id="Fill-20" fill="#D7BDB3"></path>
            <path d="M182.433839,33.0918095 C182.391073,33.5032233 182.282902,33.8343612 182.51937,33.9773526 C182.750808,34.1178353 183.955792,34.0375595 183.570902,33.445525 C183.186011,32.8484733 182.725652,32.1084302 182.489183,32.0331716 C182.25523,31.9453698 182.011214,32.2564388 182.209948,32.4947578 C182.209948,32.4947578 182.481636,32.6803957 182.433839,33.0918095" id="Fill-22" fill="#D7BDB3"></path>
            <path d="M124.667794,50.0653879 C124.197372,50.0904741 123.943294,50.1782759 123.186091,51.3397672 C121.973559,53.1710603 115.299606,63.3008707 114.185184,64.4974828 C113.078309,65.6966034 112.368903,66.9509138 111.739997,67.5228793 C111.111091,68.0973534 110.844434,68.4008966 110.844434,68.4008966 C110.844434,68.4008966 110.570231,68.6994224 110.285966,68.3933707 C109.996669,68.087319 109.229403,67.04875 109.229403,67.04875 C109.229403,67.04875 108.935075,66.5344828 109.418075,65.9474655 C109.901075,65.3579397 111.214231,62.6059828 111.65195,61.7329828 C112.087153,60.865 113.022966,58.7251466 113.390247,58.246 C113.752497,57.7743793 116.647981,52.9051466 116.889481,52.3858621 C117.12595,51.8615603 117.510841,51.6232414 117.556122,51.4125172 C117.598887,51.2043017 117.626559,50.9735086 117.095762,51.0061207 C116.819044,51.0261897 112.590278,51.5680517 107.875997,52.7922586 C103.808231,53.860931 99.3656375,55.4890259 97.0160437,57.0895259 C93.3809656,59.5830948 91.7860594,60.7822155 93.6350437,68.596569 C93.6350437,68.596569 96.1431219,76.7696552 105.317606,77.5272586 C110.218044,77.9261293 117.392606,72.7132155 121.588669,66.7452069 C122.582341,65.3278362 131.779466,52.3482328 132.237309,51.2921034 C132.690122,50.2309569 133.618387,49.5260345 132.516544,49.6012931 C131.417216,49.6740431 125.143247,50.0403017 124.667794,50.0653879 L124.667794,50.0653879 Z M120.725809,50.5345 C120.408841,50.5570776 120.222684,50.4241207 119.684341,51.2494569 C119.145997,52.0773017 114.484544,60.1726207 114.396497,60.3582586 C114.310966,60.5438966 113.878278,61.4143879 115.075716,59.9267759 C116.273153,58.4466897 120.7887,51.5228966 120.939637,51.3196983 C121.090575,51.1139914 121.709419,50.4918534 120.725809,50.5345 L120.725809,50.5345 Z M122.423856,46.82425 C121.362263,48.3494914 121.576091,48.8186034 122.013809,48.9816638 C122.454044,49.1497414 123.233888,47.499069 124.069075,46.4128362 C124.909294,45.3291121 134.596966,30.7690776 134.989403,29.9587931 C135.381841,29.1485086 135.215809,28.9779224 134.136606,30.2272155 C133.007091,31.5316983 123.490481,45.3040259 122.423856,46.82425 L122.423856,46.82425 Z M135.887481,28.511319 C135.887481,28.511319 136.5667,28.7922845 136.674872,28.9904655 C136.785559,29.1811207 136.669841,29.2588879 136.861028,29.3542155 C137.052216,29.4545603 137.386794,29.602569 137.313841,30.0014397 C137.243403,30.4003103 136.471106,31.9004655 135.306372,33.5762241 C134.144153,35.2494741 129.980794,41.2074483 128.823606,42.7903879 C127.663903,44.3733276 125.661466,47.5091034 125.530653,47.8552931 C125.394809,48.1939569 125.452669,48.3871207 126.116794,48.3946466 C126.778403,48.4071897 133.892591,48.1462931 133.892591,48.1462931 C133.892591,48.1462931 134.398231,48.0308966 134.853559,47.2256293 C135.308887,46.4128362 147.952419,26.7552845 149.099544,23.7926034 C149.532231,22.6787759 151.866731,18.5395517 152.108231,17.3429397 C152.349731,16.1588707 152.644059,15.2557672 150.998841,15.9456379 C149.348591,16.6380172 145.922309,18.2736379 143.617997,20.4711897 C141.313684,22.6587069 137.384278,26.725181 135.887481,28.511319 L135.887481,28.511319 Z M138.549013,22.8192586 C138.549013,22.8192586 149.793856,10.9258879 152.784934,14.794181 C152.784934,14.794181 154.435184,15.8578362 153.454091,19.1917931 C152.191247,23.4664828 136.639653,47.3886897 136.659778,47.7424052 C136.674872,48.0911034 147.009059,47.7925776 147.605262,47.9932672 C148.468122,48.2892845 149.252997,49.5962759 151.212669,49.4658276 C153.169825,49.3328707 155.481684,48.8336552 155.889216,48.6981897 C156.2892,48.5627241 155.906825,48.8838276 156.002419,49.00675 C156.08795,49.1246552 156.160903,49.2174741 156.065309,49.3328707 C155.9672,49.4507759 155.637653,49.6313966 155.748341,49.8421207 C155.861544,50.0628793 156.150841,50.0403017 156.336997,49.972569 C156.528184,49.9023276 156.671575,49.7969655 156.596106,50.02525 C156.520638,50.2610603 155.899278,50.7878707 154.646497,51.1466034 C153.3912,51.500319 153.10945,51.5379483 151.906981,51.4501466 C150.709544,51.3573276 149.819013,50.991069 149.373747,50.7703103 C148.930997,50.5570776 148.649247,50.4567328 148.339825,50.8932328 C148.022856,51.3372586 145.806591,54.2347155 145.519809,54.6335862 C145.227997,55.0274397 144.966372,55.2080603 144.757575,55.0174052 C144.548778,54.8242414 144.209169,53.9035776 144.075841,53.6652586 C143.939997,53.4269397 143.801637,53.0255603 143.995341,52.8650086 C144.184012,52.7044569 146.541153,49.7166897 146.687059,49.5310517 C146.835481,49.3454138 146.921013,49.1246552 146.583919,49.0895345 C146.583919,49.0895345 143.887169,49.317819 142.687216,49.29775 C141.487262,49.2726638 136.772981,49.4532845 136.300044,49.4281983 C135.829622,49.390569 135.590638,49.5762069 135.326497,49.8345948 C135.062356,50.0854569 124.655216,66.5971983 120.660403,71.2632328 C118.386278,73.9148448 112.758825,79.3685862 106.132669,79.1754224 C99.5014813,78.9872759 91.8137312,71.9907328 91.426325,62.7740603 C91.345825,60.9778879 91.2426844,56.1588276 101.770575,52.8524655 C114.082044,48.9816638 117.732216,49.4281983 118.388794,49.2877155 C119.525856,49.059431 120.366075,48.9490517 121.316981,47.2908534 C122.270403,45.6276379 133.059919,29.7957328 137.635841,25.4633448 C142.073403,21.268931 145.645591,17.1848966 151.250403,14.8117414 C151.509513,14.6963448 151.567372,14.3928017 151.006388,14.5784397 C151.006388,14.5784397 148.108387,15.2607845 144.986497,17.7167241 L138.707497,22.6687414 L138.549013,22.8192586 Z" id="Fill-24" fill="#D7BDB3"></path>
            <path d="M264.633898,38.5377741 C264.633898,38.5377741 257.197711,47.7996017 258.971227,46.3671793 C260.744742,44.9322483 268.729336,33.8968259 270.122992,31.6741879 C271.426086,29.6020672 272.978227,27.0407655 273.934164,25.761369 C274.666211,24.7804983 275.783148,23.0219552 276.223383,23.5838862 C276.671164,24.1533431 278.047211,25.4653517 277.576789,26.54155 C277.101336,27.612731 273.992023,37.8203086 275.695102,38.1966017 C277.408242,38.5804207 281.813102,36.7315672 284.147602,35.3744034 C286.47707,34.0172397 294.80882,29.576981 298.179758,26.3684552 C301.54818,23.1599293 305.560602,19.3342828 306.541695,18.4286707 C307.520273,17.5230586 310.669836,14.8563948 310.669836,14.8563948 C310.669836,14.8563948 311.059758,14.4023345 311.301258,14.8212741 C311.547789,15.2477397 312.161602,16.1357914 312.161602,16.1357914 C312.161602,16.1357914 312.408133,16.5597483 311.854695,17.0113 C311.301258,17.4653603 307.238523,21.9532828 305.402117,23.6817224 C303.570742,25.4101621 300.88657,27.4571966 300.033773,28.1997483 C299.186008,28.9372828 297.58607,30.0260241 294.879258,32.8883603 C291.294492,36.673869 274.84482,53.9206362 265.745805,67.0156362 C260.709523,74.26555 254.29468,82.5991879 248.838289,90.5038517 C244.443492,96.8682224 240.624773,103.325412 239.007227,105.906783 C235.382211,111.709222 236.876492,112.908343 235.53818,112.802981 C234.194836,112.697619 233.731961,111.548671 234.665258,109.516688 C235.626227,107.442059 250.840727,80.9986879 265.217523,64.4919638 C268.475258,60.7641534 281.352742,44.00155 284.84443,40.7127483 C288.338633,37.4214379 290.92218,33.6986448 290.92218,33.6986448 C290.92218,33.6986448 280.909992,40.1031534 277.795648,40.384119 C274.688852,40.6701017 273.27507,37.4214379 273.659961,34.2455241 C274.049883,31.0746276 276.386898,24.4995328 273.280102,29.6346793 C270.168273,34.7748431 264.475414,44.0517224 259.776227,48.9134293 C256.058133,52.7616534 254.402852,53.8503948 253.721117,54.4223603 C253.041898,54.9943259 252.649461,54.9717483 252.355133,54.6406103 C252.065836,54.3044552 251.547617,53.2834466 251.547617,53.2834466 C251.547617,53.2834466 251.358945,52.8645069 251.940055,52.0617483 C252.521164,51.2489552 262.686805,37.361231 263.006289,37.0802655 C263.325773,36.8068259 263.642742,36.5258603 263.766008,36.7817397 C263.884242,37.0326017 264.779805,38.3696966 264.633898,38.5377741" id="Fill-26" fill="#D7BCB3"></path>
            <path d="M311.347294,46.9283578 C311.583763,47.2218664 310.569966,47.879125 310.403934,47.8690905 C310.247966,47.8615647 311.060513,46.5646078 311.347294,46.9283578 M313.108231,47.6734181 C313.105716,45.862194 311.810169,43.4187974 309.3197,45.240056 C307.923528,46.2710991 307.284559,48.824875 307.505934,49.2563578 C306.512263,49.6677716 305.279606,50.207125 304.092231,50.2196681 C302.907372,50.2322112 301.717481,50.3400819 302.057091,49.5297974 C302.399216,48.7119871 303.148872,47.5053405 303.123716,47.078875 C303.098559,46.6549181 302.514934,46.0503405 302.384122,45.7217112 C302.260856,45.385556 301.536356,45.240056 301.400512,45.6012974 C301.259637,45.9650474 300.753997,47.0512802 298.484903,48.2529095 C297.518903,48.7596509 296.517684,49.3316164 296.517684,49.3316164 C296.517684,49.3316164 295.856075,49.552375 296.366747,48.7119871 C296.874903,47.8665819 297.752856,46.5972198 297.564184,46.0954957 C297.375512,45.6012974 296.661075,44.7383319 296.661075,44.7383319 C296.661075,44.7383319 296.406997,44.4297716 295.609544,44.7483664 C294.814606,45.0644526 292.090184,45.9399612 290.646216,45.8822629 C289.187153,45.8245647 288.990934,45.6589957 288.641262,45.1572716 C288.284044,44.6605647 287.426216,44.6103922 287.551997,44.9766509 C287.682809,45.3429095 287.873997,46.2234353 288.314231,46.7979095 C288.492841,47.0236853 289.257591,47.5705647 289.222372,47.9644181 C289.177091,48.3632888 288.807294,49.1760819 288.334356,49.7279784 C287.863934,50.2823836 287.023716,51.1202629 286.558325,51.4739784 C286.087903,51.827694 285.511825,52.1161853 285.461512,51.6872112 C285.406169,51.1930129 285.074106,50.0265043 284.88795,49.8784957 C284.701794,49.7304871 283.982325,49.7555733 283.469137,50.5031422 C282.953434,51.2557284 282.490559,52.0609957 282.669169,52.918944 C282.855325,53.7794009 283.622591,55.3071509 284.115653,55.3497974 C284.608716,55.3874267 286.1357,54.8530905 286.671528,54.373944 C287.209872,53.8897802 290.278934,51.5667974 290.673887,49.7982198 C290.774512,49.3466681 290.60345,48.1876853 290.608481,48.0522198 C290.608481,47.9217716 291.300278,47.9694353 291.665044,47.8690905 C292.022263,47.7837974 292.651169,47.6934871 292.920341,47.6959957 C293.186997,47.7035216 294.578137,47.2645129 294.200794,47.879125 C293.830997,48.5012629 293.677544,49.8157802 293.866216,50.2823836 C294.054888,50.7414612 294.452356,52.078556 295.217106,52.1111681 C295.682497,52.1287284 297.342809,51.6495819 297.976747,51.132806 C298.6132,50.623556 300.419419,49.2337802 300.537653,49.7681164 C300.663434,50.2924181 301.2697,51.9606509 302.804231,52.171375 C305.770153,52.5802802 307.971325,51.2732888 307.971325,51.2732888 C307.971325,51.2732888 308.791419,53.2601164 310.569966,53.3228319 C312.353544,53.3830388 311.946012,52.296806 311.946012,52.0609957 C311.946012,51.8302026 311.598856,51.132806 311.073091,51.1227716 C310.547325,51.1202629 309.093294,51.2557284 309.460575,50.6988147 C309.835403,50.1519353 313.115778,49.479625 313.108231,47.6734181" id="Fill-28" fill="#D7BCB3"></path>
            <path d="M65.2877234,16.605656 C64.8147859,16.7235612 55.0491297,19.0666129 51.3234891,18.8308026 C51.3234891,18.8308026 46.6041766,19.2146216 44.7501609,16.3999491 C43.7766141,14.9173543 44.6872703,15.4190784 44.8985828,15.5645784 C45.1124109,15.7176043 46.8129734,16.6583371 49.3185359,16.7060009 C52.1838328,16.7561733 55.8692234,16.6006388 60.6740672,15.4065353 C61.7507547,15.1406216 63.1066766,14.7618198 64.3091453,14.443225 C66.8172234,13.788475 69.2221609,13.0885698 69.8611297,12.8101129 C69.8611297,12.8101129 70.7189578,12.5140957 70.9805828,12.6896991 C71.2472391,12.8653026 72.2660672,13.933975 72.2660672,13.933975 C72.2660672,13.933975 72.5151141,14.172294 72.2258172,14.5786905 C71.9365203,14.9825784 63.0815203,26.7781129 58.3370516,35.3325095 C56.3748641,38.8847164 49.0518797,52.1176905 46.9764891,55.9734405 C44.8985828,59.8316991 38.2472703,70.8545784 34.6750828,73.6441647 C32.0085203,75.7213026 28.8715359,79.283544 23.7924891,79.1556043 C18.7184734,79.025156 11.4684422,75.8893802 5.65231719,62.2776043 C5.19195781,61.1938802 0.377051562,51.6811905 0.678926562,51.181975 C0.980801562,50.6902853 0.611004687,50.2236819 1.96944219,49.3657336 C3.32536406,48.510294 7.27237969,46.7617853 11.8583641,47.5494922 C13.8935047,47.9057164 13.4532703,48.6833888 13.3224578,48.7511216 C13.1891297,48.8238716 12.9803328,49.1575181 11.7778641,49.1525009 C10.5829422,49.1525009 6.94534844,49.4133974 5.28503594,50.0731647 C3.62723906,50.7354405 2.86752031,50.9963371 2.59834844,51.856794 C2.33169219,52.7222681 8.05725469,66.5046302 11.0533641,70.4431647 C14.0570203,74.3867164 17.2367703,77.4171302 22.9044734,77.2515612 C28.5746922,77.1035526 34.2071766,71.624725 38.3378328,65.7068888 C39.2560359,64.3873543 51.8039734,43.4579319 53.9347078,38.887225 C55.0994422,36.393656 62.1431922,25.1324578 63.6903016,22.8947681 C65.2399266,20.6595871 67.5241141,17.0998543 67.9115203,16.5203629 C68.2989266,15.9383629 68.1932703,15.7176043 67.2750672,16.0086043 C65.7153797,16.5053112 65.7631766,16.4852422 65.2877234,16.605656" id="Fill-30" fill="#D7BCB3"></path>
            <path d="M79.069575,54.5595819 C79.3010125,54.8530905 78.2847,55.5128578 78.1237,55.5003147 C77.9677312,55.4927888 78.7827937,54.2008491 79.069575,54.5595819 M70.3957,43.5116164 C75.8445437,33.858444 84.3247156,19.0249698 84.4932625,18.6737629 C84.7347625,18.1569871 84.7599187,17.8835474 84.6467156,17.7330302 C84.5284812,17.5825129 84.2492469,17.3316509 83.7737937,17.0506853 C83.2983406,16.762194 83.1474031,17.1309612 83.1474031,17.1309612 C83.1474031,17.1309612 79.6255281,23.7913491 78.7224187,25.1108836 C77.8167937,26.4354353 67.1304187,45.4708491 65.706575,47.7060302 C64.2852469,49.9462284 60.2828875,58.5457802 60.0413875,58.917056 C59.7973719,59.2908405 59.9181219,59.4012198 59.9181219,59.4012198 C59.9181219,59.4012198 60.6074031,60.703194 60.7633719,60.8938491 C60.9143094,61.0895216 61.1809656,61.2575991 61.4652312,61.172306 C61.7494969,61.0794871 61.7369187,60.8512026 62.1268406,60.1713664 C62.5117312,59.5115991 62.9318406,58.917056 63.6915594,57.7229526 C64.4537937,56.5313578 65.3242,55.4175302 65.8222937,54.810444 C66.3203875,54.2058664 65.8977625,55.0036078 66.73295,56.7420819 C68.0712625,59.5241422 69.5781219,59.737375 71.2912625,59.9205043 C73.0044031,60.1136681 75.3036844,59.0951681 75.9074344,58.917056 C76.5036375,58.738944 76.3627625,58.7815905 76.7602312,59.5316681 C77.1577,60.2717112 78.5412937,61.3027543 78.9941062,61.4131336 C79.4494344,61.5310388 79.5953406,61.2676336 79.61295,61.0794871 C79.6355906,60.8938491 79.4142156,60.6580388 79.1374969,60.3971422 C79.1374969,60.3971422 78.4532469,59.8753491 78.0205594,59.5065819 C77.5828406,59.1378147 77.6230906,58.6787371 77.6130281,58.3501078 C77.6029656,58.0189698 78.3928719,57.7806509 79.2733406,56.8825647 C79.6884187,56.4686422 81.1801844,54.9935733 81.1902469,54.4692716 C81.1977937,53.9223922 80.7877469,53.1547543 80.6015906,52.951556 C80.4129187,52.7433405 79.7890437,51.6495819 78.3777781,52.3469784 C76.9614812,53.044375 76.1036531,55.5454698 76.0130906,56.0948578 C75.9275594,56.6417371 75.18545,56.7220129 73.7917937,57.2939784 C71.7792937,58.1243319 69.3617781,57.8007198 68.6096062,57.5222629 C67.85995,57.2463147 68.202075,55.5103491 68.2800594,54.5344957 C68.3605594,53.5611509 68.1115125,53.3178147 67.6737937,52.6028578 C67.236075,51.8904095 66.390825,51.7674871 66.0034187,51.7298578 C65.6210437,51.6897198 66.0738562,51.060056 66.0738562,51.060056 C66.0738562,51.060056 67.8197,48.0798147 70.3957,43.5116164" id="Fill-32" fill="#D7BCB3"></path>
            <path d="M357.97717,46.3734509 C357.97717,46.3734509 357.544483,47.2991319 357.21242,47.6428129 C356.882873,47.986494 356.50553,48.6914164 356.349561,49.110356 C356.191077,49.5242784 355.836373,50.1363819 355.921905,50.9993474 C356.007436,51.8623129 356.437608,52.6851405 356.711811,52.5170629 C356.986014,52.3489853 358.495389,50.9215802 358.671483,50.4298905 C358.857639,49.9407095 359.234983,49.5017009 359.562014,49.4314595 C359.878983,49.3662353 360.261358,49.0752353 360.465123,48.7315543 C360.661342,48.3928905 361.969467,45.5732009 362.409702,44.9134336 C362.839873,44.2611922 363.825998,42.7158819 363.856186,42.4775629 C363.886373,42.2292095 363.680092,41.3863129 363.483873,41.0401233 C363.29017,40.6813905 362.849936,40.5358905 362.724155,40.6537957 C362.598373,40.7742095 361.914123,41.4339767 362.032358,40.545925 C362.148077,39.6603819 364.057436,26.1665112 358.241311,15.1009853 C358.241311,15.1009853 354.31442,8.71654569 348.712123,4.94358017 C345.308483,2.643175 340.035733,1.697425 338.908733,1.35123534 C337.786764,0.995011207 337.746514,0.867071552 337.487405,1.07277845 C337.235842,1.27597672 336.476123,1.51429569 337.230811,1.73505431 C337.977952,1.95832155 341.570264,3.19005431 344.360092,4.28632155 C347.157467,5.37757155 353.071702,7.90124397 357.10928,15.0031491 C357.10928,15.0031491 361.831108,21.0664853 360.907873,36.2436405 C360.480217,43.3054078 358.767077,44.8833302 357.97717,46.3734509" id="Fill-34" fill="#D7BCB3"></path>
            <path d="M334.948384,47.5630388 C334.7899,47.5504957 335.607478,46.2560474 335.894259,46.6172888 C336.128213,46.9107974 335.106869,47.5705647 334.948384,47.5630388 M351.863447,49.572444 C351.342713,49.6150905 351.013166,50.0842026 349.823275,50.134375 C348.633384,50.1920733 347.916431,50.3476078 348.117681,50.008944 C348.326478,49.6652629 349.136509,48.4711595 349.028338,47.5780905 C348.920166,46.6925474 348.266103,45.8396164 348.012025,46.0854612 C347.765494,46.3237802 347.370541,47.4777457 346.867416,47.8665819 C346.369322,48.2529095 344.470025,49.2789353 343.622259,49.4670819 C342.784556,49.6477026 341.836166,49.8308319 342.394634,49.4219267 C342.940525,49.0080043 343.297744,48.3733233 343.234853,47.8766164 C343.166931,47.389944 342.709088,46.6850216 342.5179,46.5069095 C342.321681,46.3338147 341.974525,46.4517198 341.715416,46.7427198 C341.466369,47.0362284 340.507916,48.3306767 339.559525,48.7571422 C338.611134,49.1810991 336.870322,49.697875 336.452728,49.7154353 C336.027588,49.7304871 335.806213,49.7054009 336.253994,49.4369784 C336.706806,49.1760819 338.065244,47.9167543 337.788525,46.5997284 C337.514322,45.2902284 336.706806,43.3059095 335.630119,43.9757112 C334.555947,44.6505302 334.027666,45.2350388 333.693088,45.7743922 C333.366056,46.3087284 332.807588,46.9659871 332.722056,47.6784353 C332.636525,48.3933922 332.724572,49.063194 332.550994,49.1810991 C332.372384,49.3015129 331.899447,49.3190733 331.751025,49.5398319 C331.600088,49.7580819 331.451666,49.677806 331.011431,49.697875 C330.561134,49.7154353 329.7184,49.7731336 329.250494,49.8910388 C328.770009,50.0039267 327.466916,49.9336853 327.771306,49.4219267 C328.078213,48.9051509 328.659322,47.9067198 328.327259,47.1340647 C327.992681,46.3664267 327.482009,45.8120216 327.212838,46.1080388 C326.928572,46.4015474 326.173884,47.5454784 325.316056,48.2679612 C324.460744,48.9929526 323.859509,49.5774612 323.605431,49.7455388 C323.361416,49.916125 322.166494,50.3626595 322.496041,49.8032371 C322.828103,49.2337802 324.500994,46.9258491 324.289681,46.5018922 C324.068306,46.0754267 323.444431,45.0067543 323.243181,44.9064095 C323.046963,44.803556 322.8759,44.9239698 322.624338,45.1397112 C322.372775,45.3604698 321.965244,46.0453233 321.615572,46.185806 C321.270931,46.331306 320.868431,46.589694 320.898619,46.2234353 C320.926291,45.8546681 320.762775,45.458306 320.390463,45.4758664 C320.023181,45.4934267 319.504963,45.7668664 318.959072,46.6373578 C318.936431,46.6699698 317.193103,48.4510905 316.624572,49.115875 C316.051009,49.7731336 316.098806,50.1970905 316.232134,50.6210474 C316.362947,51.0399871 316.536525,51.5617802 316.614509,51.8502716 C316.700041,52.1487974 316.873619,52.3244009 317.175494,52.4071853 C317.484916,52.4874612 317.779244,52.3595216 317.995587,52.2064957 C318.216963,52.0609957 319.492384,50.9245905 319.610619,50.8292629 C319.726338,50.7264095 319.945197,50.5683664 320.033244,50.809194 C320.116259,51.0500216 320.752713,52.3820991 320.853338,52.5827888 C320.953963,52.7884957 321.228166,53.0192888 321.557713,53.0393578 C321.889775,53.0594267 322.858291,52.627944 323.336259,52.3218922 C323.814228,52.0133319 325.321088,50.8694009 325.670759,50.6586767 C326.017916,50.4529698 326.387713,50.1795302 326.505947,50.4855819 C326.609088,50.789125 326.883291,51.900444 328.022869,52.0183491 C329.164963,52.1412716 330.052978,51.900444 331.12715,51.5116078 C332.198806,51.1227716 333.182416,50.9170647 333.182416,50.9170647 C333.182416,50.9170647 334.178603,52.0609957 335.210009,52.0735388 C336.498009,52.0961164 338.724338,50.6611853 339.270228,50.6586767 C339.816119,50.6536595 339.785931,51.0625647 339.843791,51.3435302 C339.843791,51.3435302 340.138119,52.4147112 341.3909,52.2039871 C342.985806,51.9380733 346.560509,50.0189784 346.615853,50.3476078 C346.676228,50.6837629 346.937853,52.4197284 348.261072,52.4197284 C349.584291,52.4172198 352.125072,51.6495819 352.182931,51.0123922 C352.245822,50.3701853 352.384181,49.5373233 351.863447,49.572444" id="Fill-36" fill="#D7BCB3"></path>
            <path d="M179.941609,42.8812 C180.057328,42.7106138 180.130281,42.0684069 179.783125,41.9831138 C179.438484,41.9028379 174.502828,42.5927086 173.385891,42.7432259 C172.261406,42.8962517 170.450156,43.0367345 170.324375,42.9915793 C170.201109,42.9414069 169.997344,42.9690017 170.241359,42.5525707 C170.364625,42.3343207 171.557031,40.5632345 172.817359,38.9501914 C174.044984,37.372269 175.338016,35.9548983 175.433609,35.8344845 C175.629828,35.6036914 175.9795,35.3628638 175.916609,35.076881 C175.85875,34.7959155 175.325437,33.9705793 175.282672,33.8125362 C175.237391,33.6570017 174.877656,33.1778552 174.751875,33.3333897 C174.626094,33.4889241 174.460062,33.6570017 174.460062,33.6570017 C174.460062,33.6570017 170.231297,38.9251052 169.328187,40.2320966 C168.420047,41.5340707 167.232672,43.3854328 167.232672,43.3854328 C167.232672,43.3854328 165.987437,43.588631 164.719562,43.5384586 C163.451687,43.4882862 160.619094,43.3854328 160.196469,43.3076655 C159.781391,43.2273897 159.507187,43.1546397 158.971359,42.8661483 C158.616656,42.6704759 158.307234,42.3318121 158.126109,42.0257603 C157.670781,41.2430707 157.253187,40.6936828 157.016719,40.7739586 C156.777734,40.8542345 156.546297,41.3409069 156.672078,41.6218724 C156.792828,41.8953121 157.502234,43.6337862 157.776437,44.0201138 C158.053156,44.4114586 158.651875,45.0235621 159.726047,45.2142172 C160.800219,45.407381 161.04675,45.5177603 161.947344,45.5654241 C162.842906,45.6130879 164.156062,45.5227776 164.601328,45.5127431 C165.041562,45.5077259 165.63525,45.4224328 165.340922,45.8764931 C165.051625,46.3230276 162.858,49.1602776 162.226578,50.1837948 C161.592641,51.2098207 160.271937,53.0712172 159.882016,53.8488897 C159.487062,54.6340879 159.029219,55.6425534 159.039281,56.0364069 C159.051859,56.4252431 159.185187,56.8216052 159.27575,56.9947 C159.368828,57.1677948 159.454359,57.483881 159.643031,57.7222 C159.826672,57.960519 160.324766,58.3920017 160.553687,57.8677 C160.782609,57.3358724 160.835437,57.1301655 161.024109,56.9620879 C161.215297,56.7940103 161.333531,56.2496397 161.371266,56.0063034 C161.409,55.7755103 161.371266,55.1734414 161.547359,54.8799328 C161.725969,54.5889328 167.738312,46.0721655 167.886734,45.8689672 C168.030125,45.665769 168.173516,45.3923293 168.915625,45.3271052 C169.657734,45.2568638 179.518984,43.8194241 179.961734,43.7943379 C180.401969,43.7692517 180.628375,43.5083552 180.452281,43.3929586 C180.278703,43.2850879 179.830922,43.0492776 179.941609,42.8812" id="Fill-38" fill="#D7BCB3"></path>
            <path d="M177.103984,46.8867147 C177.033547,46.7236543 176.827266,46.5129302 176.527906,46.8214905 C176.527906,46.8214905 176.032328,47.3558267 175.710328,47.9152491 C175.388328,48.4696543 174.751875,49.4103871 174.641187,49.6737922 C174.535531,49.9422147 174.356922,50.2984388 174.341828,50.5593353 C174.326734,50.8177233 174.356922,51.4047405 174.482703,51.5126112 C174.608484,51.6179733 174.885203,51.7484216 174.882688,51.8989388 C174.877656,52.0444388 175.005953,52.3931371 175.099031,52.5336198 C175.192109,52.6690853 175.549328,52.8321457 175.577,52.5888095 C175.594609,52.3454733 175.828562,51.7559474 175.904031,51.507594 C175.974469,51.2567319 176.376969,50.6220509 176.595828,50.3410853 C176.817203,50.0726629 177.773141,48.8785595 177.888859,48.7606543 C178.004578,48.6452578 178.095141,48.306594 177.919047,48.0005422 C177.740437,47.6969991 177.179453,47.0397405 177.103984,46.8867147" id="Fill-40" fill="#D7BCB3"></path>
            <path d="M186.882722,44.9452931 C186.324253,44.3733276 185.481519,44.2955603 185.086566,45.0682155 C184.694128,45.8509052 184.052644,46.7213966 183.911769,47.4388621 C183.775925,48.1613448 183.720581,49.5084741 183.406128,49.5636638 C183.086644,49.6213621 182.203659,50.0478276 182.100519,50.3614052 C181.999894,50.6749828 182.243909,51.2720345 182.3068,51.4927931 C182.362144,51.7085345 182.294222,52.1525603 182.699238,52.2529052 C183.106769,52.3607759 183.924347,52.4009138 184.301691,52.5012586 C184.674003,52.5965862 185.277753,52.4862069 185.310456,52.2629397 C185.348191,52.0446897 185.318003,51.8264397 185.323034,51.5128621 C185.330581,51.2017931 184.832488,49.3730086 185.506675,48.2140259 C186.0903,47.2256293 186.824863,46.6386121 187.126738,47.3360086 C187.431128,48.0308966 187.333019,48.0635086 187.57955,48.259181 C187.831113,48.4498362 188.273863,48.3921379 188.218519,47.8552931 C188.165691,47.3234655 187.894003,46.5608448 187.672628,46.3099828 C187.672628,46.3099828 187.443706,45.5197672 186.882722,44.9452931" id="Fill-42" fill="#D7BCB3"></path>
            <path d="M240.081902,42.0679052 C237.968777,45.8509052 230.955214,47.8452586 229.918777,48.1262241 C229.546464,46.7540086 229.959027,45.5724483 229.989214,45.4796293 C230.021917,45.4068793 230.026948,45.3316207 230.034495,45.2588707 C230.592964,43.7938362 231.574058,42.0252586 233.407948,39.5592845 C236.064448,35.9619224 238.617808,34.0378103 240.803886,32.6078966 C242.987448,31.1804914 243.007573,32.8311638 243.01512,33.2099655 C243.155995,37.6928707 240.55987,41.2124655 240.081902,42.0679052 M213.139558,49.225 C212.588636,49.4281983 211.766027,49.6640086 211.55723,49.7016379 C211.345917,49.7417759 211.149698,49.7091638 211.413839,49.4056207 C211.753448,49.0142759 212.565995,48.3143707 213.217542,48.1613448 C213.217542,48.1613448 213.791105,47.9807241 213.778527,48.3770862 C213.773495,48.7709397 213.69048,49.0192931 213.139558,49.225 M192.956698,49.3278534 C192.410808,49.5285431 191.590714,49.7643534 191.371855,49.8019828 C191.168089,49.8396121 190.969355,49.8120172 191.23098,49.5084741 C191.573105,49.1171293 192.385652,48.4197328 193.044745,48.2616897 C193.044745,48.2616897 193.608245,48.081069 193.598183,48.4799397 C193.595667,48.8737931 193.505105,49.1296724 192.956698,49.3278534 M233.216761,53.1158707 C233.309839,53.1459741 233.392855,53.1660431 233.485933,53.1660431 C233.785292,53.1660431 233.820511,52.8725345 233.933714,52.5715 C234.077105,52.1776466 234.207917,51.9543793 233.830573,51.7336207 L231.875933,50.6223017 C231.58412,50.3864914 231.116214,50.1657328 231.402995,49.9876207 C231.737573,49.7844224 238.383855,48.2014828 241.618948,42.6674655 C242.054152,41.929931 244.813792,37.6552414 243.888042,32.6806466 C243.787417,32.1638707 243.208823,30.8041983 243.083042,30.5157069 C242.964808,30.2196897 242.109495,29.6803362 241.135948,30.2297241 C240.167433,30.7791121 237.923495,31.744931 234.758839,35.2093362 C231.591667,38.6712328 230.386683,40.474931 229.526339,42.1757759 C228.650902,43.8741121 228.268527,45.4796293 228.248402,46.6085086 C228.228277,47.7373879 228.268527,47.9706897 228.306261,48.113681 C228.346511,48.2641983 228.406886,48.4724138 228.092433,48.5301121 C227.944011,48.5602155 226.535261,48.8788103 224.852308,49.1070948 C222.958042,49.3604655 220.721652,49.516 219.720433,49.5410862 C217.831198,49.5987845 217.056386,49.3554483 216.794761,49.0368534 C216.525589,48.71575 215.94448,48.081069 215.718073,48.0509655 C215.489152,48.0308966 215.048917,48.0860862 214.948292,47.7248448 C214.847667,47.3661121 214.203667,45.7054052 213.257792,45.8383621 C212.314433,45.9663017 211.803761,46.2924224 211.05662,46.9271034 C210.30948,47.5617845 209.454167,48.5526897 209.40637,49.1798448 C209.351027,49.8120172 209.537183,50.1055259 209.154808,50.1406466 C208.77998,50.1782759 206.865589,50.2284483 206.536042,50.0152155 C206.206495,49.7969655 205.726011,49.6865862 206.06562,49.1698103 C206.412777,48.6530345 206.520948,48.5050259 206.442964,48.1688707 C206.359948,47.8352241 205.803995,47.0525345 205.60023,46.9220862 C205.393948,46.7941466 205.159995,46.9998534 204.837995,47.2431897 C204.521027,47.4915431 203.585214,48.2892845 203.313527,48.2842672 C203.039323,48.27925 202.890902,48.2968103 202.835558,47.9405862 C202.777698,47.5843621 202.511042,47.1428448 202.407902,46.9923276 C202.307277,46.8468276 202.355073,46.5357586 202.229292,46.4680259 C202.103511,46.4028017 201.89723,46.294931 201.663277,46.4579914 C201.431839,46.6210517 200.508605,46.9095431 200.174027,47.2958707 C200.174027,47.2958707 199.104886,48.2692155 198.845777,48.6053707 C198.591698,48.9390172 198.470948,49.1397069 198.501136,49.6389224 C197.359042,49.5937672 196.820698,49.3880603 196.611902,49.132181 C196.340214,48.8186034 195.769167,48.1814138 195.535214,48.1563276 C195.308808,48.1312414 194.861027,48.1889397 194.767948,47.8327155 C194.667323,47.4714741 194.025839,45.8082586 193.077448,45.9387069 C192.129058,46.0716638 191.623417,46.3952759 190.876277,47.0324655 C190.131652,47.6646379 189.273823,48.6605603 189.220995,49.2877155 C189.220995,49.2877155 188.348073,52.1500517 190.93162,52.300569 C191.895105,52.3632845 194.204448,51.7938276 194.649714,51.5504914 C195.102527,51.3046466 195.580495,50.9885603 195.907527,51.0261897 C196.234558,51.0588017 196.725105,51.6106983 197.852105,51.8063707 C199.577823,52.1099138 199.88473,52.06225 200.065855,51.9117328 C200.118683,51.8991897 200.179058,51.8766121 200.22937,51.8515259 C200.360183,51.7938276 200.735011,51.6307672 201.205433,51.427569 L201.215495,51.427569 L201.245683,51.4125172 C202.370167,50.9258448 204.010355,50.223431 204.176386,50.1431552 C204.41537,50.0327759 204.727308,49.899819 204.810323,50.17075 C204.895855,50.4391724 205.222886,51.62575 206.04298,52.0271293 C206.865589,52.4184741 207.856745,52.5715 208.792558,52.4686466 C209.733402,52.3632845 210.14848,52.2579224 211.11448,52.1977155 C212.077964,52.1425259 214.387308,51.6884655 214.830058,51.4501466 C215.285386,51.2043017 215.763355,50.8806897 216.090386,50.9208276 C216.417417,50.9559483 216.890355,51.5956466 218.029933,51.7035172 C219.144355,51.8113879 223.297652,51.8841379 228.779198,50.5269741 C229.043339,50.4592414 229.211886,50.5345 229.325089,50.6498966 C229.325089,50.6498966 230.975339,52.3407069 233.216761,53.1158707" id="Fill-44" fill="#D7BCB3"></path>
            <path d="M182.433839,33.0918095 C182.391073,33.5032233 182.282902,33.8343612 182.51937,33.9773526 C182.750808,34.1178353 183.955792,34.0375595 183.570902,33.445525 C183.186011,32.8484733 182.725652,32.1084302 182.489183,32.0331716 C182.25523,31.9453698 182.011214,32.2564388 182.209948,32.4947578 C182.209948,32.4947578 182.481636,32.6803957 182.433839,33.0918095" id="Fill-46" fill="#D7BCB3"></path>
            <path d="M124.667794,50.0653879 C124.197372,50.0904741 123.943294,50.1782759 123.186091,51.3397672 C121.973559,53.1710603 115.299606,63.3008707 114.185184,64.4974828 C113.078309,65.6966034 112.368903,66.9509138 111.739997,67.5228793 C111.111091,68.0973534 110.844434,68.4008966 110.844434,68.4008966 C110.844434,68.4008966 110.570231,68.6994224 110.285966,68.3933707 C109.996669,68.087319 109.229403,67.04875 109.229403,67.04875 C109.229403,67.04875 108.935075,66.5344828 109.418075,65.9474655 C109.901075,65.3579397 111.214231,62.6059828 111.65195,61.7329828 C112.087153,60.865 113.022966,58.7251466 113.390247,58.246 C113.752497,57.7743793 116.647981,52.9051466 116.889481,52.3858621 C117.12595,51.8615603 117.510841,51.6232414 117.556122,51.4125172 C117.598887,51.2043017 117.626559,50.9735086 117.095762,51.0061207 C116.819044,51.0261897 112.590278,51.5680517 107.875997,52.7922586 C103.808231,53.860931 99.3656375,55.4890259 97.0160437,57.0895259 C93.3809656,59.5830948 91.7860594,60.7822155 93.6350437,68.596569 C93.6350437,68.596569 96.1431219,76.7696552 105.317606,77.5272586 C110.218044,77.9261293 117.392606,72.7132155 121.588669,66.7452069 C122.582341,65.3278362 131.779466,52.3482328 132.237309,51.2921034 C132.690122,50.2309569 133.618387,49.5260345 132.516544,49.6012931 C131.417216,49.6740431 125.143247,50.0403017 124.667794,50.0653879 L124.667794,50.0653879 Z M120.725809,50.5345 C120.408841,50.5570776 120.222684,50.4241207 119.684341,51.2494569 C119.145997,52.0773017 114.484544,60.1726207 114.396497,60.3582586 C114.310966,60.5438966 113.878278,61.4143879 115.075716,59.9267759 C116.273153,58.4466897 120.7887,51.5228966 120.939637,51.3196983 C121.090575,51.1139914 121.709419,50.4918534 120.725809,50.5345 L120.725809,50.5345 Z M122.423856,46.82425 C121.362263,48.3494914 121.576091,48.8186034 122.013809,48.9816638 C122.454044,49.1497414 123.233888,47.499069 124.069075,46.4128362 C124.909294,45.3291121 134.596966,30.7690776 134.989403,29.9587931 C135.381841,29.1485086 135.215809,28.9779224 134.136606,30.2272155 C133.007091,31.5316983 123.490481,45.3040259 122.423856,46.82425 L122.423856,46.82425 Z M135.887481,28.511319 C135.887481,28.511319 136.5667,28.7922845 136.674872,28.9904655 C136.785559,29.1811207 136.669841,29.2588879 136.861028,29.3542155 C137.052216,29.4545603 137.386794,29.602569 137.313841,30.0014397 C137.243403,30.4003103 136.471106,31.9004655 135.306372,33.5762241 C134.144153,35.2494741 129.980794,41.2074483 128.823606,42.7903879 C127.663903,44.3733276 125.661466,47.5091034 125.530653,47.8552931 C125.394809,48.1939569 125.452669,48.3871207 126.116794,48.3946466 C126.778403,48.4071897 133.892591,48.1462931 133.892591,48.1462931 C133.892591,48.1462931 134.398231,48.0308966 134.853559,47.2256293 C135.308887,46.4128362 147.952419,26.7552845 149.099544,23.7926034 C149.532231,22.6787759 151.866731,18.5395517 152.108231,17.3429397 C152.349731,16.1588707 152.644059,15.2557672 150.998841,15.9456379 C149.348591,16.6380172 145.922309,18.2736379 143.617997,20.4711897 C141.313684,22.6587069 137.384278,26.725181 135.887481,28.511319 L135.887481,28.511319 Z M138.549013,22.8192586 C138.549013,22.8192586 149.793856,10.9258879 152.784934,14.794181 C152.784934,14.794181 154.435184,15.8578362 153.454091,19.1917931 C152.191247,23.4664828 136.639653,47.3886897 136.659778,47.7424052 C136.674872,48.0911034 147.009059,47.7925776 147.605262,47.9932672 C148.468122,48.2892845 149.252997,49.5962759 151.212669,49.4658276 C153.169825,49.3328707 155.481684,48.8336552 155.889216,48.6981897 C156.2892,48.5627241 155.906825,48.8838276 156.002419,49.00675 C156.08795,49.1246552 156.160903,49.2174741 156.065309,49.3328707 C155.9672,49.4507759 155.637653,49.6313966 155.748341,49.8421207 C155.861544,50.0628793 156.150841,50.0403017 156.336997,49.972569 C156.528184,49.9023276 156.671575,49.7969655 156.596106,50.02525 C156.520638,50.2610603 155.899278,50.7878707 154.646497,51.1466034 C153.3912,51.500319 153.10945,51.5379483 151.906981,51.4501466 C150.709544,51.3573276 149.819013,50.991069 149.373747,50.7703103 C148.930997,50.5570776 148.649247,50.4567328 148.339825,50.8932328 C148.022856,51.3372586 145.806591,54.2347155 145.519809,54.6335862 C145.227997,55.0274397 144.966372,55.2080603 144.757575,55.0174052 C144.548778,54.8242414 144.209169,53.9035776 144.075841,53.6652586 C143.939997,53.4269397 143.801637,53.0255603 143.995341,52.8650086 C144.184012,52.7044569 146.541153,49.7166897 146.687059,49.5310517 C146.835481,49.3454138 146.921013,49.1246552 146.583919,49.0895345 C146.583919,49.0895345 143.887169,49.317819 142.687216,49.29775 C141.487262,49.2726638 136.772981,49.4532845 136.300044,49.4281983 C135.829622,49.390569 135.590638,49.5762069 135.326497,49.8345948 C135.062356,50.0854569 124.655216,66.5971983 120.660403,71.2632328 C118.386278,73.9148448 112.758825,79.3685862 106.132669,79.1754224 C99.5014813,78.9872759 91.8137312,71.9907328 91.426325,62.7740603 C91.345825,60.9778879 91.2426844,56.1588276 101.770575,52.8524655 C114.082044,48.9816638 117.732216,49.4281983 118.388794,49.2877155 C119.525856,49.059431 120.366075,48.9490517 121.316981,47.2908534 C122.270403,45.6276379 133.059919,29.7957328 137.635841,25.4633448 C142.073403,21.268931 145.645591,17.1848966 151.250403,14.8117414 C151.509513,14.6963448 151.567372,14.3928017 151.006388,14.5784397 C151.006388,14.5784397 148.108387,15.2607845 144.986497,17.7167241 L138.707497,22.6687414 L138.549013,22.8192586 Z" id="Fill-48" fill="#D7BCB3"></path>
            <polygon id="Fill-50" fill="#D7BDB3" points="2.771675 104.712428 4.19803438 109.58417 4.26847187 109.58417 5.79545625 104.712428 6.99037813 104.712428 8.5073 109.58417 8.5777375 109.58417 10.0116438 104.712428 11.7222688 104.712428 9.33997188 112.13042 7.7928625 112.13042 6.38662813 107.725282 6.31619062 107.725282 4.93008125 112.13042 3.38045625 112.13042 0.993128125 104.712428"></polygon>
            <polygon id="Fill-52" fill="#D7BDB3" points="18.7375922 108.965293 15.9905297 108.965293 15.9905297 110.736379 20.8280766 110.736379 20.8280766 112.131172 14.3629203 112.131172 14.3629203 104.713181 20.5639359 104.713181 20.5639359 106.120517 15.9905297 106.120517 15.9905297 107.567991 18.7375922 107.567991"></polygon>
            <path d="M34.5696781,110.836975 C33.7143656,111.632208 32.4137875,112.359708 30.7811469,112.359708 C28.3108031,112.359708 26.6781625,110.601165 26.6781625,108.416156 C26.6781625,106.283828 28.3233812,104.482639 30.7232875,104.482639 C32.0943031,104.482639 33.4376469,105.019484 34.3256625,105.779596 L33.3043187,106.848268 C32.6200687,106.258742 31.6616156,105.892484 30.8641625,105.892484 C29.3598187,105.892484 28.3887875,107.043941 28.3887875,108.431208 C28.3887875,109.828509 29.3799437,110.964915 30.9195062,110.964915 C31.9383344,110.964915 32.8816937,110.430578 33.5332406,109.778337 L34.5696781,110.836975 Z" id="Fill-54" fill="#D7BDB3"></path>
            <path d="M38.8059906,106.086902 L38.8059906,108.028574 L41.4750688,108.028574 C42.0461156,108.028574 42.5089906,107.622178 42.5089906,107.057738 C42.5089906,106.804367 42.4184281,106.578591 42.2473656,106.408005 C41.9857406,106.122022 41.6536781,106.086902 41.3568344,106.086902 L38.8059906,106.086902 Z M37.17335,112.130169 L37.17335,104.712178 L41.298975,104.712178 C42.3605688,104.712178 43.0523656,105.018229 43.5353656,105.519953 C43.9252875,105.928859 44.1516938,106.460686 44.1516938,107.057738 C44.1516938,108.011014 43.5580063,108.74604 42.6448344,109.147419 L44.3881625,112.130169 L42.5240844,112.130169 L41.0147094,109.410824 L38.8059906,109.410824 L38.8059906,112.130169 L37.17335,112.130169 Z" id="Fill-56" fill="#D7BDB3"></path>
            <polygon id="Fill-58" fill="#D7BDB3" points="51.5808375 108.965293 48.8312594 108.965293 48.8312594 110.736379 53.6662906 110.736379 53.6662906 112.131172 47.2011344 112.131172 47.2011344 104.713181 53.4071813 104.713181 53.4071813 106.120517 48.8312594 106.120517 48.8312594 107.567991 51.5808375 107.567991"></polygon>
            <path d="M58.3574281,109.278871 L60.6843813,109.278871 L59.5548656,106.652345 L59.4894594,106.652345 L58.3574281,109.278871 Z M58.8605531,104.713181 L60.2642719,104.713181 L63.7131938,112.131172 L61.9271,112.131172 L61.24285,110.568302 L57.7989594,110.568302 L57.1247719,112.131172 L55.4066,112.131172 L58.8605531,104.713181 Z" id="Fill-60" fill="#D7BDB3"></path>
            <polygon id="Fill-62" fill="#D7BDB3" points="64.5458656 104.712428 71.566975 104.712428 71.566975 106.122273 68.8777719 106.122273 68.8777719 112.13042 67.2476469 112.13042 67.2476469 106.122273 64.5458656 106.122273"></polygon>
            <polygon id="Fill-64" fill="#D7BDB3" points="78.5513563 108.965293 75.8017781 108.965293 75.8017781 110.736379 80.639325 110.736379 80.639325 112.131172 74.1716531 112.131172 74.1716531 104.713181 80.3751844 104.713181 80.3751844 106.120517 75.8017781 106.120517 75.8017781 107.567991 78.5513563 107.567991"></polygon>
            <path d="M82.8196172,113.450958 C83.3504141,113.305458 84.2333984,112.796208 84.2333984,112.156509 L84.2333984,112.061182 C84.1428359,112.091285 84.0422109,112.121389 83.9088828,112.121389 C83.4158203,112.121389 83.0133203,111.762656 83.0133203,111.293544 C83.0133203,110.784294 83.4837422,110.382915 84.0749141,110.382915 C84.7717422,110.382915 85.3855547,110.974949 85.3855547,111.860492 C85.3855547,113.305458 84.1428359,114.012889 83.2346953,114.316432 L82.8196172,113.450958 Z" id="Fill-66" fill="#D7BDB3"></path>
            <polygon id="Fill-68" fill="#D7BDB3" points="92.7027531 104.712428 94.1291125 109.58417 94.1945187 109.58417 95.7240187 104.712428 96.9189406 104.712428 98.4383781 109.58417 98.5037844 109.58417 99.9376906 104.712428 101.648316 104.712428 99.2635031 112.13042 97.7163938 112.13042 96.3177063 107.725282 96.2447531 107.725282 94.8536125 112.13042 93.3065031 112.13042 90.9216906 104.712428"></polygon>
            <polygon id="Fill-70" fill="#D7BDB3" points="108.666155 108.965293 105.921608 108.965293 105.921608 110.736379 110.751608 110.736379 110.751608 112.131172 104.288967 112.131172 104.288967 104.713181 110.489983 104.713181 110.489983 106.120517 105.921608 106.120517 105.921608 107.567991 108.666155 107.567991"></polygon>
            <path d="M118.919087,109.278871 L121.248556,109.278871 L120.119041,106.652345 L120.048603,106.652345 L118.919087,109.278871 Z M119.422213,104.713181 L120.823416,104.713181 L124.279884,112.131172 L122.488759,112.131172 L121.804509,110.568302 L118.36565,110.568302 L117.688947,112.131172 L115.968259,112.131172 L119.422213,104.713181 Z" id="Fill-72" fill="#D7BDB3"></path>
            <path d="M128.357713,106.086902 L128.357713,108.028574 L131.026791,108.028574 C131.590291,108.028574 132.060713,107.622178 132.060713,107.057738 C132.060713,106.804367 131.967634,106.578591 131.796572,106.408005 C131.537463,106.122022 131.202884,106.086902 130.908556,106.086902 L128.357713,106.086902 Z M126.727588,112.130169 L126.727588,104.712178 L130.850697,104.712178 C131.912291,104.712178 132.606603,105.018229 133.087088,105.519953 C133.477009,105.928859 133.7009,106.460686 133.7009,107.057738 C133.7009,108.011014 133.109728,108.74604 132.196556,109.147419 L133.939884,112.130169 L132.073291,112.130169 L130.566431,109.410824 L128.357713,109.410824 L128.357713,112.130169 L126.727588,112.130169 Z" id="Fill-74" fill="#D7BDB3"></path>
            <polygon id="Fill-76" fill="#D7BDB3" points="141.132308 108.965293 138.38273 108.965293 138.38273 110.736379 143.217761 110.736379 143.217761 112.131172 136.750089 112.131172 136.750089 104.713181 142.95362 104.713181 142.95362 106.120517 138.38273 106.120517 138.38273 107.567991 141.132308 107.567991"></polygon>
            <path d="M151.381467,109.278871 L153.713452,109.278871 L152.583936,106.652345 L152.513498,106.652345 L151.381467,109.278871 Z M151.887108,104.713181 L153.288311,104.713181 L156.742264,112.131172 L154.953655,112.131172 L154.269405,110.568302 L150.825514,110.568302 L150.153842,112.131172 L148.43567,112.131172 L151.887108,104.713181 Z" id="Fill-78" fill="#D7BDB3"></path>
            <path d="M160.820092,106.086902 L160.820092,108.028574 L163.48917,108.028574 C164.057702,108.028574 164.523092,107.622178 164.523092,107.057738 C164.523092,106.804367 164.435045,106.578591 164.263983,106.408005 C163.999842,106.122022 163.66778,106.086902 163.373452,106.086902 L160.820092,106.086902 Z M159.192483,112.130169 L159.192483,104.712178 L163.318108,104.712178 C164.37467,104.712178 165.071498,105.018229 165.546952,105.519953 C165.939389,105.928859 166.165795,106.460686 166.165795,107.057738 C166.165795,108.011014 165.574623,108.74604 164.658936,109.147419 L166.40478,112.130169 L164.538186,112.130169 L163.028811,109.410824 L160.820092,109.410824 L160.820092,112.130169 L159.192483,112.130169 Z" id="Fill-80" fill="#D7BDB3"></path>
            <polygon id="Fill-82" fill="#D7BDB3" points="168.338792 104.712428 175.359902 104.712428 175.359902 106.122273 172.668183 106.122273 172.668183 112.13042 171.040573 112.13042 171.040573 106.122273 168.338792 106.122273"></polygon>
            <polygon id="Fill-84" fill="#D7BDB3" points="177.969359 112.131172 179.596969 112.131172 179.596969 104.713181 177.969359 104.713181"></polygon>
            <path d="M188.351847,106.623245 C187.904066,106.289598 186.970769,105.830521 185.735597,105.830521 C185.001034,105.830521 184.341941,106.098943 184.341941,106.738641 C184.341941,107.3959 185.318003,107.441055 186.286519,107.518822 C187.644956,107.609133 189.765628,107.769684 189.765628,109.816719 C189.765628,111.645503 188.236128,112.36046 186.414816,112.36046 C184.485331,112.36046 183.187269,111.600348 182.321894,110.892917 L183.245128,109.77909 C183.871519,110.283322 184.933112,111.028383 186.434941,111.028383 C187.383331,111.028383 188.132987,110.66965 188.132987,109.974762 C188.132987,109.259805 187.368237,109.099253 186.253816,109.008943 C184.626206,108.901072 182.7093,108.725469 182.7093,106.833969 C182.7093,105.040305 184.384706,104.480883 185.788425,104.480883 C187.33805,104.480883 188.646175,105.055357 189.285144,105.484331 L188.351847,106.623245 Z" id="Fill-86" fill="#D7BDB3"></path>
            <path d="M194.459281,109.278871 L196.781203,109.278871 L195.654203,106.652345 L195.586281,106.652345 L194.459281,109.278871 Z M194.957375,104.713181 L196.361094,104.713181 L199.815047,112.131172 L198.023922,112.131172 L197.342187,110.568302 L193.900813,110.568302 L193.226625,112.131172 L191.505937,112.131172 L194.957375,104.713181 Z" id="Fill-87" fill="#D7BDB3"></path>
            <polygon id="Fill-88" fill="#D7BDB3" points="209.110784 104.712428 209.110784 112.13042 207.699519 112.13042 203.913503 107.544661 203.903441 107.544661 203.903441 112.13042 202.265769 112.13042 202.265769 104.712428 203.664456 104.712428 207.458019 109.318256 207.470597 109.318256 207.470597 104.712428"></polygon>
            <path d="M217.861386,106.623245 C217.418636,106.289598 216.480308,105.830521 215.255198,105.830521 C214.515605,105.830521 213.848964,106.098943 213.848964,106.738641 C213.848964,107.3959 214.830058,107.441055 215.798573,107.518822 C217.159527,107.609133 219.275167,107.769684 219.275167,109.816719 C219.275167,111.645503 217.748183,112.36046 215.924355,112.36046 C213.999902,112.36046 212.696808,111.600348 211.833948,110.892917 L212.757183,109.77909 C213.383573,110.283322 214.445167,111.028383 215.946995,111.028383 C216.89287,111.028383 217.645042,110.66965 217.645042,109.974762 C217.645042,109.259805 216.882808,109.099253 215.76587,109.008943 C214.138261,108.901072 212.221355,108.725469 212.221355,106.833969 C212.221355,105.040305 213.896761,104.480883 215.30048,104.480883 C216.850105,104.480883 218.155714,105.055357 218.799714,105.484331 L217.861386,106.623245 Z" id="Fill-89" fill="#D7BDB3"></path>
            <path d="M222.190022,109.656167 L221.850412,106.678434 L221.850412,104.711676 L223.583678,104.711676 L223.583678,106.678434 L223.241553,109.656167 L222.190022,109.656167 Z M222.715787,110.383667 C223.309475,110.383667 223.787444,110.825184 223.787444,111.349486 C223.787444,111.881314 223.309475,112.307779 222.715787,112.307779 C222.112037,112.307779 221.654194,111.881314 221.654194,111.349486 C221.654194,110.825184 222.112037,110.383667 222.715787,110.383667 L222.715787,110.383667 Z" id="Fill-90" fill="#D7BDB3"></path>
        </g>
    </g>
</svg>