<?xml version="1.0" encoding="UTF-8"?>
<svg width="32px" height="32px" viewBox="0 0 32 32" version="1.1" xmlns="http://www.w3.org/2000/svg" xmlns:xlink="http://www.w3.org/1999/xlink">
    <!-- Generator: Sketch 41.2 (35397) - http://www.bohemiancoding.com/sketch -->
    <title>search-group</title>
    <desc>Created with Sketch.</desc>
    <defs></defs>
    <g id="Page-1" stroke="none" stroke-width="1" fill="none" fill-rule="evenodd">
        <g id="Home" transform="translate(-1259.000000, -36.000000)">
            <g id="search-group" transform="translate(1259.000000, 36.000000)">
                <circle id="Oval" fill="#484E6F" cx="16" cy="16" r="16"></circle>
                <g id="icon-search" transform="translate(8.000000, 8.000000)" fill="#FFFFFF">
                    <path d="M15.8616101,15.187403 L11.9724994,11.2982923 C13.0157463,10.0989133 13.6473719,8.53404303 13.6473719,6.82368596 C13.6473719,3.05877135 10.5850521,0 6.82368596,0 C3.05877135,0 0,3.0623198 0,6.82368596 C0,10.5850521 3.0623198,13.6473719 6.82368596,13.6473719 C8.53404303,13.6473719 10.0989133,13.0157463 11.2982923,11.9724994 L15.187403,15.8616101 C15.2796629,15.95387 15.4038589,16.0035485 15.5245065,16.0035485 C15.6451541,16.0035485 15.7693502,15.9574185 15.8616101,15.8616101 C16.04613,15.6770903 16.04613,15.3719228 15.8616101,15.187403 Z M0.954535374,6.82368596 C0.954535374,3.58749168 3.58749168,0.958083832 6.8201375,0.958083832 C10.0563318,0.958083832 12.6857396,3.59104014 12.6857396,6.82368596 C12.6857396,10.0563318 10.0563318,12.6928365 6.8201375,12.6928365 C3.58749168,12.6928365 0.954535374,10.0598802 0.954535374,6.82368596 Z" id="Shape"></path>
                </g>
            </g>
        </g>
    </g>
</svg>