<?xml version="1.0" encoding="UTF-8"?>
<svg width="163px" height="23px" viewBox="0 0 163 23" version="1.1" xmlns="http://www.w3.org/2000/svg" xmlns:xlink="http://www.w3.org/1999/xlink">
    <!-- Generator: Sketch 41.2 (35397) - http://www.bohemiancoding.com/sketch -->
    <title>Page 1</title>
    <desc>Created with Sketch.</desc>
    <defs>
        <polygon id="path-1" points="162.128 22.4323124 162.128 0.0003 0.0003 0.0003 0.0003 22.4323124"></polygon>
    </defs>
    <g id="Page-1" stroke="none" stroke-width="1" fill="none" fill-rule="evenodd">
        <g>
            <mask id="mask-2" fill="white">
                <use xlink:href="#path-1"></use>
            </mask>
            <g id="Clip-2"></g>
            <path d="M135.5483,10.0703 C135.8003,10.0513 136.0023,9.8433 136.0123,9.5903 L136.0123,9.5773 L136.0123,4.3383 L136.0123,4.3253 C136.0033,4.0743 135.8063,3.8683 135.5583,3.8453 L132.4293,3.8453 C132.1793,3.8693 131.9813,4.0793 131.9753,4.3343 L131.9753,9.5813 C131.9823,9.8403 132.1853,10.0503 132.4403,10.0703 L135.5483,10.0703 Z M142.0903,9.5773 L142.0913,9.5773 L142.0913,10.0703 L142.0913,3.8453 L142.0913,4.3383 L142.0903,4.3383 C142.0873,4.0813 141.8873,3.8693 141.6353,3.8453 L138.5543,3.8453 C138.3023,3.8693 138.1043,4.0813 138.1013,4.3383 L138.1003,4.3383 L138.1003,9.5773 L138.1013,9.5773 C138.1043,9.8383 138.3083,10.0503 138.5643,10.0703 L141.6263,10.0703 C141.8823,10.0503 142.0873,9.8383 142.0903,9.5773 L142.0903,9.5773 Z M113.4053,10.0803 L115.0853,10.0803 C115.0473,11.8453 114.2663,14.1703 112.2913,15.3663 L112.2913,13.6393 C113.1413,12.7263 113.3903,11.2673 113.4053,10.0803 L113.4053,10.0803 Z M118.7253,13.2403 L120.4043,13.2403 C120.3403,12.1703 119.9643,11.1733 119.2763,10.0803 L117.9103,10.0803 C118.5083,11.1973 118.6533,12.1033 118.7253,13.2403 L118.7253,13.2403 Z M124.3103,6.0593 C124.1293,6.0783 123.9863,6.2283 123.9783,6.4123 L123.9783,6.4143 L123.9783,7.4833 C123.9783,8.5913 123.7843,10.2943 123.4953,11.2663 C122.7353,13.8263 120.3763,15.8893 120.4273,15.5173 L120.4273,13.9793 C121.1673,13.0563 122.1113,12.0223 122.1113,7.4793 L122.1113,1.9813 L122.1143,1.9233 C122.1143,1.9153 122.1153,1.9073 122.1163,1.9003 L122.1163,1.5483 C123.8993,1.4743 125.9863,1.0513 127.6483,0.5303 L127.6483,2.2073 C127.6483,2.2073 126.1243,2.5163 123.9763,2.7083 C123.9763,3.1723 123.9773,3.8003 123.9783,4.5183 C123.9983,4.7733 124.2093,4.9753 124.4683,4.9783 L124.4683,4.9793 L128.0063,4.9793 L128.0063,6.0593 L127.2883,6.0593 C127.1033,6.0783 126.9583,6.2343 126.9553,6.4233 L126.9553,15.6173 L125.0983,15.6173 L125.0983,6.3903 C125.0813,6.2163 124.9423,6.0773 124.7683,6.0593 L124.3103,6.0593 Z M118.8023,5.9193 C118.7993,5.9533 118.8043,6.0593 118.9083,6.0763 L121.3163,6.0763 L121.3163,7.1563 L118.0473,7.1563 L118.0353,7.1563 C117.7743,7.1663 117.5633,7.3793 117.5553,7.6393 L117.5553,8.0373 C117.5633,8.2983 117.7743,8.5093 118.0353,8.5203 L121.1543,8.5203 L121.1543,9.5993 L118.0033,9.5993 C117.7573,9.6263 117.5633,9.8313 117.5553,10.0813 L117.5553,15.6173 L115.6993,15.6173 L115.6993,10.0643 C115.6843,9.8223 115.4933,9.6253 115.2533,9.5993 L112.2783,9.5993 L112.2783,8.5203 L115.2203,8.5203 C115.4753,8.5103 115.6833,8.3073 115.6993,8.0533 L115.6993,7.6233 C115.6833,7.3693 115.4753,7.1663 115.2203,7.1563 L115.2073,7.1563 L112.2783,7.1563 L112.2783,6.0763 L114.3583,6.0763 C114.4563,6.0603 114.4663,5.9643 114.4653,5.9243 L113.9283,2.9293 C113.9013,2.8393 113.8083,2.8153 113.7763,2.8093 L113.7743,2.8093 L113.7723,2.8093 L113.7703,2.8093 L112.3903,2.8093 L112.3903,1.7293 L115.2163,1.7293 C115.4733,1.7213 115.6833,1.5173 115.6993,1.2623 L115.6993,0.3333 L117.5553,0.3333 L117.5553,1.2463 C117.5633,1.5073 117.7773,1.7213 118.0393,1.7293 L121.3163,1.7293 L121.3163,2.8093 L119.6283,2.8093 C119.6023,2.8133 119.4933,2.8363 119.4683,2.9383 C119.4123,3.3133 118.9553,5.2703 118.8023,5.9193 L118.8023,5.9193 Z M117.3043,6.0763 C117.3053,6.0763 117.4373,6.0643 117.4693,5.9543 L117.4703,5.9483 L117.4713,5.9433 L118.0063,2.9633 C118.0073,2.9253 117.9993,2.8273 117.9013,2.8093 L115.3653,2.8093 C115.2623,2.8293 115.2593,2.9383 115.2623,2.9683 C115.2633,2.9693 115.2633,2.9693 115.2633,2.9703 L115.2633,2.9723 C115.4233,3.6483 115.8813,5.6093 115.9273,5.9473 C115.9553,6.0643 116.0913,6.0763 116.0923,6.0763 L116.0913,6.0763 L117.3053,6.0763 L117.3043,6.0763 Z M150.2033,4.9533 C151.5143,4.0883 152.7923,3.0753 153.8323,1.9923 L153.8303,1.9953 C153.8363,1.9893 153.8403,1.9833 153.8453,1.9773 C153.8453,1.9773 153.8463,1.9773 153.8463,1.9763 C153.8523,1.9703 153.8573,1.9663 153.8623,1.9603 C153.8673,1.9553 153.8713,1.9503 153.8763,1.9463 C154.1563,1.6773 154.4023,1.8493 154.4963,1.9383 C154.4983,1.9393 154.4993,1.9413 154.5013,1.9433 C155.6633,3.2023 156.8133,4.1733 157.9123,4.9533 L150.2033,4.9533 Z M146.0603,5.0503 L146.0603,7.1563 C147.0693,6.7583 148.2293,6.1743 149.3973,5.4633 L149.3973,6.0333 L158.3363,6.0333 L158.3363,5.2473 C159.7193,6.1813 161.0093,6.8313 162.1283,7.4033 L162.1283,4.8733 C159.3813,4.1203 156.2193,1.4213 155.0053,0.0383 L154.3673,0.0383 L153.5423,0.0383 L152.3773,0.0383 C150.9863,2.3233 148.3743,3.9783 146.0603,5.0503 L146.0603,5.0503 Z M151.9893,9.5573 C151.9883,9.5573 151.8703,9.5473 151.8423,9.6413 L151.8413,9.6413 C151.6943,10.2093 151.1963,11.7413 150.3513,13.0923 C150.3513,13.0923 150.3513,13.0923 150.3513,13.0933 C150.3413,13.1123 150.3193,13.2333 150.4573,13.2453 C152.3543,13.0763 154.9753,12.7093 157.8993,11.8613 L157.8983,11.8613 L157.9003,11.8613 C157.9063,11.8593 157.9133,11.8573 157.9203,11.8553 C158.0023,11.8233 158.0103,11.7333 158.0073,11.6973 C158.0063,11.6973 158.0063,11.6963 158.0063,11.6953 C158.0063,11.6953 158.0063,11.6953 158.0063,11.6943 C157.8473,11.1083 157.6613,10.5493 157.4443,10.1003 L159.3683,10.1023 C159.3683,10.1023 160.6933,13.9273 161.0293,15.5783 L158.7163,15.5783 C158.7163,15.5783 158.6053,14.5293 158.3653,13.2763 C158.3513,13.2383 158.3063,13.1693 158.2023,13.2173 L158.2073,13.2143 C153.4313,15.3563 147.8273,15.5643 147.4663,15.6173 L147.4663,13.4183 C147.6093,13.4053 147.8883,13.3973 148.2863,13.3823 L148.2873,13.3823 L148.2873,13.3823 C148.2983,13.3813 148.3653,13.3723 148.4123,13.3243 C148.4133,13.3233 148.4153,13.3223 148.4163,13.3213 C148.4163,13.3203 148.4173,13.3203 148.4173,13.3193 C148.4183,13.3193 148.4193,13.3183 148.4203,13.3173 C148.4243,13.3123 148.4293,13.3063 148.4333,13.2993 C149.2773,12.0243 149.5373,10.3623 149.6293,9.6613 C149.6263,9.6273 149.6083,9.5643 149.5243,9.5563 L149.4943,9.5563 C149.4933,9.5563 149.4923,9.5573 149.4913,9.5573 L149.4923,9.5563 L146.6893,9.5563 L146.6893,8.4773 L161.1683,8.4773 L161.1683,9.5563 L151.9883,9.5563 L151.9893,9.5573 Z M15.2413,0.0003 L20.2263,0.0003 L22.7413,12.0113 L25.9723,0.0003 L29.4863,0.0003 L32.7163,12.0113 L35.2333,0.0003 L40.2173,0.0003 L35.5193,22.4323 L30.5343,22.4323 L27.7293,12.0033 L24.9243,22.4323 L19.9403,22.4323 L15.2413,0.0003 L15.2413,22.4323 L10.2563,22.4323 L4.9853,10.9043 L4.9853,22.4323 L0.0003,22.4323 L0.0003,0.0003 L4.9853,0.0003 L10.2563,11.5293 L10.2563,0.0003 L15.2413,0.0003 Z M56.9373,5.4843 L49.7813,5.4843 C47.0213,5.4843 44.0803,7.5853 42.8273,10.7793 C41.0763,15.2433 43.3803,21.9253 49.7583,22.4323 C43.5643,22.4423 39.5393,16.4153 39.7473,10.7793 C39.9723,4.6903 44.7033,0.0003 49.7813,0.0003 L56.9373,0.0003 L56.9373,5.4843 Z M99.7083,21.1863 L92.5033,21.1863 L92.5033,1.2473 L99.7083,1.2473 C101.8693,1.2473 103.7883,3.2243 103.7883,5.4723 C103.7883,7.6703 101.9453,9.7153 99.7083,9.7153 L94.9273,9.7153 L94.9273,10.9613 L99.7083,10.9613 C102.3103,10.9613 104.6863,13.1603 104.6853,16.0763 C104.6833,19.4983 101.7023,21.1863 99.7083,21.1863 L99.7083,21.1863 Z M91.2563,0.0003 L91.2563,20.9223 C91.2273,21.6303 90.8773,22.0343 90.3553,22.2073 L90.3553,22.4323 L99.7083,22.4323 C103.0113,22.4323 105.9323,19.5733 105.9323,16.0763 C105.9323,12.2253 102.8433,10.5783 102.2263,10.2783 C103.7963,9.4203 105.0263,7.6623 105.0323,5.4723 C105.0393,2.7703 102.8393,0.0553 99.7083,0.0003 L91.2563,0.0003 Z M45.9453,7.8773 C44.9243,9.4383 44.5423,11.4483 45.0673,13.1093 C45.8843,15.6983 48.2053,16.9483 49.7573,16.9483 L56.9383,16.9483 L56.9383,22.4323 L54.7753,22.4323 C50.2863,22.4323 45.3543,21.6483 43.5963,16.1053 C42.9533,13.0113 43.5293,9.9373 45.9453,7.8773 L45.9453,7.8773 Z M63.9833,16.7693 C63.9943,20.4743 67.2183,22.4193 69.4143,22.4323 C64.7043,22.4233 58.4993,22.3713 58.4993,15.5903 L58.4993,0.0003 L63.9833,0.0003 L63.9833,16.7693 Z M65.0073,15.2753 C65.7603,16.3413 66.7023,16.9483 67.8823,16.9483 L74.0763,16.9483 L74.0763,22.4323 L72.6843,22.4323 C69.5093,22.4323 65.1343,20.5683 65.0073,16.7583 L65.0073,15.2753 Z M88.4213,0.0003 L89.6673,0.0003 L89.6673,15.2953 C89.6673,19.1143 86.7803,22.4323 82.6553,22.4323 C78.5313,22.4323 75.6133,19.0553 75.6133,15.2953 L75.6133,1.5103 C75.5843,0.8033 75.2343,0.3983 74.7123,0.2253 L74.7123,0.0003 L76.8603,0.0003 L76.8603,15.2953 C76.8603,18.1953 79.1303,21.2093 82.6553,21.1863 C86.1813,21.1643 88.4213,18.3143 88.4213,15.2953 L88.4213,0.0003 Z M138.1003,0.0383 L138.1003,2.2623 L138.1013,2.2623 C138.1043,2.5333 138.3243,2.7553 138.5953,2.7583 L138.1003,2.7583 L138.1003,2.7613 L142.5033,2.7613 L142.5033,2.7643 L144.1793,2.7643 L144.1793,11.1613 L142.0913,11.1613 L142.0913,11.1553 L138.1003,11.1553 L138.5953,11.1553 L138.5953,11.1563 C138.3243,11.1593 138.1043,11.3803 138.1013,11.6503 L138.1003,11.6503 L138.1003,15.6173 L136.0123,15.6173 L136.0123,11.6503 L136.0123,11.6373 C136.0023,11.3733 135.7843,11.1593 135.5173,11.1563 L135.5173,11.1553 L136.0123,11.1553 L131.9753,11.1553 L131.9753,11.1613 L129.8873,11.1613 L129.8873,2.7643 L131.3973,2.7643 L131.3973,2.7613 L136.0123,2.7613 L136.0123,2.7583 L135.5173,2.7583 C135.7843,2.7553 136.0023,2.5393 136.0123,2.2753 L136.0123,2.2623 L136.0123,0.0383 L138.1003,0.0383 Z" id="Fill-1" fill="#FEFEFE" mask="url(#mask-2)"></path>
        </g>
    </g>
</svg>