<svg xmlns="http://www.w3.org/2000/svg" width="198" height="32" viewBox="0 0 198 32">
  <g fill="none" fill-rule="evenodd">
    <path fill="#221F20" d="M89.2564284,31.8785123 L86.5790629,28.3989333 L86.5790629,31.8066526 L85.6366617,31.8066526 L85.6366617,26.3043368 L86.108144,26.3043368 L88.7139704,29.6222316 L88.7139704,26.3043368 L89.655245,26.3043368 L89.655245,31.8785123 L89.2564284,31.8785123 Z M94.0968666,30.0797754 L91.2161496,30.0797754 C91.2341752,30.4003368 91.3445821,30.6501614 91.5473701,30.8264421 C91.7507215,31.0049684 92.0244853,31.0931088 92.369225,31.0931088 C92.7984597,31.0931088 93.1234839,30.9813895 93.3471141,30.7601965 L93.7126959,31.4765474 C93.3820387,31.7437754 92.8868979,31.8785123 92.2289633,31.8785123 C91.6144028,31.8785123 91.1271482,31.6977404 90.7700159,31.3390035 C90.4123203,30.9802667 90.2320643,30.4794947 90.2320643,29.8361263 C90.2320643,29.2034246 90.4292193,28.6897404 90.8224028,28.2978807 C91.2161496,27.9043368 91.6865053,27.708407 92.2368495,27.708407 C92.821555,27.708407 93.2907841,27.8813193 93.6456632,28.2293895 C93.9988523,28.5768982 94.1762919,29.020407 94.1762919,29.5582316 C94.1762919,29.6733193 94.1498168,29.8479158 94.0968666,30.0797754 L94.0968666,30.0797754 Z M91.2493844,29.3740912 L93.230511,29.3740912 C93.1657314,28.7868632 92.8395807,28.4921263 92.2520586,28.4921263 C91.7146703,28.4921263 91.3806333,28.7868632 91.2493844,29.3740912 L91.2493844,29.3740912 Z M98.6590344,31.8785123 L98.3159846,31.8785123 L97.2090999,29.4083368 L96.1050316,31.8785123 L95.7591653,31.8785123 L94.2371283,27.7825123 L95.2285366,27.7825123 L96.0368723,30.1808281 L97.0243374,27.7825123 L97.3634441,27.7825123 L98.384144,30.195986 L99.2572592,27.7825123 L100.183888,27.7825123 L98.6590344,31.8785123 Z M107.569316,31.8785123 L107.16712,31.8785123 L105.960531,28.4101614 L104.789993,31.8785123 L104.387234,31.8785123 L102.576224,26.3043368 L103.596923,26.3043368 L104.631706,29.6222316 L105.749857,26.3043368 L106.179655,26.3043368 L107.301749,29.6222316 L108.333714,26.3043368 L109.354978,26.3043368 L107.569316,31.8785123 Z M109.246824,29.7839158 C109.246824,29.1697404 109.425953,28.6717754 109.780832,28.2860912 C110.135148,27.900407 110.604377,27.708407 111.18683,27.708407 C111.800263,27.708407 112.275689,27.8925474 112.615359,28.2630737 C112.952776,28.6330386 113.122892,29.1405474 113.122892,29.7839158 C113.122892,30.4244772 112.950522,30.9331088 112.604656,31.3109333 C112.26048,31.6887579 111.787308,31.8785123 111.18683,31.8785123 C110.575086,31.8785123 110.09797,31.6876351 109.757737,31.3058807 C109.418067,30.9241263 109.246824,30.4166175 109.246824,29.7839158 L109.246824,29.7839158 Z M110.226966,29.7839158 C110.226966,30.6692491 110.546921,31.1121965 111.18683,31.1121965 C111.481436,31.1121965 111.714079,30.9971088 111.886448,30.7663719 C112.057692,30.5367579 112.143313,30.2088982 112.143313,29.7839158 C112.143313,28.9098105 111.824485,28.4730386 111.18683,28.4730386 C110.893914,28.4730386 110.659581,28.5886877 110.486084,28.8188632 C110.314278,29.0496 110.226966,29.3712842 110.226966,29.7839158 L110.226966,29.7839158 Z M115.976007,28.6577404 C115.807581,28.5477053 115.623382,28.4921263 115.42172,28.4921263 C115.20316,28.4921263 115.010511,28.5909333 114.840394,28.7885474 C114.670841,28.9867228 114.586346,29.2275649 114.586346,29.5133193 L114.586346,31.8027228 L113.645071,31.8027228 L113.645071,27.7825123 L114.586346,27.7825123 L114.586346,28.1502316 C114.84997,27.8554947 115.199217,27.708407 115.636337,27.708407 C115.957418,27.708407 116.204707,27.7566877 116.37595,27.8543719 L115.976007,28.6577404 Z M116.868275,26.2846877 L117.810113,26.0606877 L117.810113,30.5794246 C117.810113,31.0751439 117.958261,31.3698807 118.25512,31.4647579 C118.108662,31.7398456 117.860246,31.8785123 117.50931,31.8785123 C117.082329,31.8785123 116.868275,31.5826526 116.868275,30.9914947 L116.868275,26.2846877 Z M121.344821,31.8027228 L121.344821,31.5596351 C121.267086,31.6438456 121.135273,31.7185123 120.948821,31.7825123 C120.763495,31.8465123 120.571973,31.8785123 120.372565,31.8785123 C119.810955,31.8785123 119.367074,31.7005474 119.044867,31.3451789 C118.723785,30.9892491 118.560992,30.4946526 118.560992,29.8580211 C118.560992,29.2225123 118.746881,28.7065825 119.116969,28.3063018 C119.487057,27.9065825 119.950653,27.708407 120.50832,27.708407 C120.814756,27.708407 121.094152,27.7712842 121.344821,27.8953544 L121.344821,26.2846877 L122.285532,26.0606877 L122.285532,31.8027228 L121.344821,31.8027228 Z M121.344821,28.7436351 C121.143723,28.5830737 120.934175,28.5039158 120.716178,28.5039158 C120.33933,28.5039158 120.048667,28.6178807 119.845879,28.8469333 C119.642528,29.0765474 119.541134,29.404407 119.541134,29.8321965 C119.541134,30.6681263 119.944457,31.0852491 120.753356,31.0852491 C120.842921,31.0852491 120.955017,31.0588632 121.086266,31.0049684 C121.218079,30.9510737 121.304827,30.8971789 121.344821,30.8421614 L121.344821,28.7436351 Z M129.38931,26.5973895 L128.985424,27.4030035 C128.767427,27.1857404 128.416491,27.0779509 127.93149,27.0779509 C127.4724,27.0779509 127.096116,27.2688281 126.80151,27.6533895 C126.508593,28.0373895 126.360446,28.5230035 126.360446,29.1113544 C126.360446,29.6991439 126.496764,30.166793 126.769401,30.5114947 C127.042039,30.8573193 127.405931,31.0291088 127.859387,31.0291088 C128.379877,31.0291088 128.786579,30.8449684 129.080622,30.4744421 L129.535768,31.2620912 C129.137515,31.6848281 128.55112,31.8964772 127.781088,31.8964772 C127.009367,31.8964772 126.410579,31.6438456 125.983598,31.1380211 C125.55718,30.6333193 125.343689,29.9439158 125.343689,29.0703719 C125.343689,28.2563368 125.580275,27.5776 126.054574,27.0302316 C126.527746,26.4834246 127.133293,26.2105825 127.871217,26.2105825 C128.503803,26.2105825 129.009646,26.3385825 129.38931,26.5973895 L129.38931,26.5973895 Z M132.648002,31.8027228 L132.648002,29.3252491 C132.648002,29.0776702 132.570266,28.8794947 132.414232,28.7296 C132.258761,28.5785825 132.05541,28.5039158 131.804741,28.5039158 C131.648144,28.5039158 131.491547,28.5460211 131.332696,28.6291088 C131.174972,28.7127579 131.062312,28.8087579 130.995279,28.9165474 L130.995279,31.8027228 L130.038232,31.8027228 L130.038232,26.2846877 L130.995279,26.0606877 L130.995279,28.0385123 C131.238061,27.8184421 131.573788,27.708407 132.000207,27.708407 C132.50436,27.708407 132.896417,27.8481965 133.175251,28.1260912 C133.454084,28.4051088 133.593219,28.8048281 133.593219,29.3252491 L133.593219,31.8027228 L132.648002,31.8027228 Z M134.965418,26.2246175 C135.115256,26.2246175 135.244252,26.2785123 135.350716,26.3846175 C135.457743,26.4912842 135.511256,26.6192842 135.511256,26.7691789 C135.511256,26.9190737 135.457743,27.0481965 135.350716,27.1548632 C135.244252,27.2609684 135.115256,27.3137404 134.965418,27.3137404 C134.814454,27.3137404 134.684332,27.2609684 134.577868,27.1548632 C134.471404,27.0481965 134.419017,26.9190737 134.419017,26.7691789 C134.419017,26.6192842 134.471404,26.4912842 134.577868,26.3846175 C134.684332,26.2785123 134.814454,26.2246175 134.965418,26.2246175 L134.965418,26.2246175 Z M134.478727,31.8027228 L135.431268,31.8027228 L135.431268,27.7825123 L134.478727,27.7825123 L134.478727,31.8027228 Z M138.889931,31.8027228 L138.889931,29.4801965 C138.889931,29.1366175 138.824024,28.8873544 138.692212,28.7296 C138.5604,28.5718456 138.345219,28.4921263 138.04667,28.4921263 C137.907535,28.4921263 137.761077,28.5314246 137.60448,28.6088982 C137.447882,28.6863719 137.323956,28.7829333 137.237208,28.8968982 L137.237208,31.8027228 L136.295933,31.8027228 L136.295933,27.7825123 L136.97302,27.7825123 L137.14708,28.1580912 C137.402818,27.8583018 137.780793,27.708407 138.279313,27.708407 C138.760372,27.708407 139.138346,27.8515649 139.416053,28.1373193 C139.69376,28.4241965 139.830642,28.8244772 139.830642,29.3364772 L139.830642,31.8027228 L138.889931,31.8027228 Z M142.861197,31.4018807 C142.775012,31.5416702 142.625737,31.6561965 142.413936,31.7454596 C142.201572,31.8341614 141.980758,31.8785123 141.749242,31.8785123 C141.314938,31.8785123 140.974141,31.7701614 140.724599,31.5528982 C140.476184,31.3373193 140.351694,31.0291088 140.351694,30.6316351 C140.351694,30.166793 140.528007,29.8013193 140.877817,29.5391439 C141.228189,29.276407 141.725583,29.1456 142.371125,29.1456 C142.481532,29.1456 142.612218,29.1635649 142.762056,29.2017404 C142.762056,28.7296 142.46238,28.4921263 141.862465,28.4921263 C141.508713,28.4921263 141.21129,28.5510737 140.974141,28.6689684 L140.77079,27.9402667 C141.094687,27.7847579 141.479421,27.708407 141.926682,27.708407 C142.542369,27.708407 142.993009,27.8470737 143.278602,28.1260912 C143.564758,28.4045474 143.7084,28.9345123 143.7084,29.7120561 L143.7084,30.5715649 C143.7084,31.1071439 143.81599,31.443986 144.032298,31.5815298 C143.953999,31.7168281 143.867251,31.8004772 143.772616,31.8313544 C143.676292,31.8622316 143.567012,31.8785123 143.444776,31.8785123 C143.308457,31.8785123 143.187911,31.827986 143.079757,31.7274947 C142.971603,31.6270035 142.898938,31.5186526 142.861197,31.4018807 L142.861197,31.4018807 Z M142.769942,29.910793 C142.609401,29.8782316 142.489418,29.8619509 142.408303,29.8619509 C141.66531,29.8619509 141.294096,30.1050386 141.294096,30.591214 C141.294096,30.9510737 141.503643,31.1312842 141.922739,31.1312842 C142.488292,31.1312842 142.769942,30.8494596 142.769942,30.2858105 L142.769942,29.910793 Z M147.104537,31.8027228 L147.104537,26.3043368 L148.084679,26.3043368 L148.084679,30.9353544 L150.577845,30.9353544 L150.577845,31.8027228 L147.104537,31.8027228 Z M153.323933,31.4018807 C153.238312,31.5416702 153.089037,31.6561965 152.876673,31.7454596 C152.664872,31.8341614 152.443495,31.8785123 152.212542,31.8785123 C151.777675,31.8785123 151.436878,31.7701614 151.187336,31.5528982 C150.939484,31.3373193 150.814431,31.0291088 150.814431,30.6316351 C150.814431,30.166793 150.990744,29.8013193 151.340554,29.5391439 C151.69149,29.276407 152.189447,29.1456 152.834426,29.1456 C152.944832,29.1456 153.074955,29.1635649 153.225356,29.2017404 C153.225356,28.7296 152.92568,28.4921263 152.325202,28.4921263 C151.972013,28.4921263 151.675154,28.5510737 151.437441,28.6689684 L151.233527,27.9402667 C151.557987,27.7847579 151.942158,27.708407 152.389418,27.708407 C153.005669,27.708407 153.456309,27.8470737 153.742465,28.1260912 C154.028059,28.4045474 154.171137,28.9345123 154.171137,29.7120561 L154.171137,30.5715649 C154.171137,31.1071439 154.27929,31.443986 154.495034,31.5815298 C154.417299,31.7168281 154.330551,31.8004772 154.235353,31.8313544 C154.139592,31.8622316 154.029749,31.8785123 153.907512,31.8785123 C153.771194,31.8785123 153.650648,31.827986 153.542494,31.7274947 C153.435467,31.6270035 153.361675,31.5186526 153.323933,31.4018807 L153.323933,31.4018807 Z M153.232679,29.910793 C153.072138,29.8782316 152.952719,29.8619509 152.872167,29.8619509 C152.128611,29.8619509 151.757396,30.1050386 151.757396,30.591214 C151.757396,30.9510737 151.96638,31.1312842 152.385475,31.1312842 C152.951592,31.1312842 153.232679,30.8494596 153.232679,30.2858105 L153.232679,29.910793 Z M157.549811,31.8027228 L157.549811,29.4801965 C157.549811,29.1366175 157.483905,28.8873544 157.352093,28.7296 C157.220281,28.5718456 157.004537,28.4921263 156.706551,28.4921263 C156.567979,28.4921263 156.421521,28.5314246 156.26436,28.6088982 C156.108326,28.6863719 155.9844,28.7829333 155.897088,28.8968982 L155.897088,31.8027228 L154.955814,31.8027228 L154.955814,27.7825123 L155.633464,27.7825123 L155.80696,28.1580912 C156.062699,27.8583018 156.440673,27.708407 156.939194,27.708407 C157.420252,27.708407 157.79879,27.8515649 158.075933,28.1373193 C158.35364,28.4241965 158.490522,28.8244772 158.490522,29.3364772 L158.490522,31.8027228 L157.549811,31.8027228 Z M161.870886,31.8027228 L161.870886,31.5596351 C161.793151,31.6438456 161.660776,31.7179509 161.474886,31.7825123 C161.289561,31.8459509 161.098039,31.8785123 160.899194,31.8785123 C160.337583,31.8785123 159.892576,31.7011088 159.570932,31.3451789 C159.249288,30.9898105 159.08762,30.4946526 159.08762,29.8580211 C159.08762,29.2225123 159.272946,28.7060211 159.643034,28.3063018 C160.013123,27.9071439 160.477282,27.708407 161.035512,27.708407 C161.341384,27.708407 161.620218,27.7712842 161.870886,27.8953544 L161.870886,26.2846877 L162.811598,26.0606877 L162.811598,31.8027228 L161.870886,31.8027228 Z M161.870886,28.7436351 C161.670352,28.5830737 161.460804,28.5039158 161.242244,28.5039158 C160.865396,28.5039158 160.574733,28.6178807 160.371945,28.8469333 C160.169157,29.0765474 160.067199,29.404407 160.067199,29.8321965 C160.067199,30.6681263 160.471086,31.0852491 161.279421,31.0852491 C161.369549,31.0852491 161.481646,31.0583018 161.612332,31.0049684 C161.744707,30.9510737 161.830892,30.8971789 161.870886,30.8421614 L161.870886,28.7436351 Z"/>
    <path fill="#D71829" d="M35.4227351,23.3941895 L35.4227351,7.51320702 C35.4227351,5.45959298 33.7418475,3.78436491 31.6812956,3.78436491 L17.1661775,3.78436491 C15.1050623,3.78436491 13.4241747,5.45959298 13.4241747,7.51320702 L13.4241747,23.3941895 L8.7448404,23.3941895 L8.7448404,3.78436491 L4.69414908,3.78436491 L4.69414908,26.2343298 C4.69414908,27.2628211 5.53008649,28.1015579 6.56205235,28.1015579 L15.5895004,28.1015579 C16.6214663,28.1015579 17.4630367,27.2628211 17.4630367,26.2343298 L17.4630367,11.1213474 C17.4630367,9.68078596 18.6414606,8.50632982 20.0863255,8.50632982 L28.767344,8.50632982 C30.2065758,8.50632982 31.3844364,9.67910175 31.3844364,11.1140491 L31.3844364,26.2343298 C31.3844364,27.2628211 32.2260068,28.1015579 33.2579727,28.1015579 L40.14826,28.1015579 L40.14826,31.8612772 L32.1877024,31.8612772 C29.1470083,31.8612772 26.667361,29.3894175 26.667361,26.3589614 C26.667361,21.9401544 26.6853866,17.520786 26.667361,13.1014175 C26.6651078,12.6343298 26.2578418,12.2609965 25.785233,12.2609965 L23.193489,12.2609965 C22.7191903,12.2609965 22.311361,12.6365754 22.311361,13.104786 L22.311361,26.3589614 C22.311361,29.3894175 19.8317138,31.8612772 16.7910196,31.8612772 L5.52051038,31.8612772 C2.47981622,31.8612772 0.000168990044,29.3894175 0.000168990044,26.3589614 L0.000168990044,-5.61403509e-05 L34.6279186,-5.61403509e-05 C37.6686128,-5.61403509e-05 40.14826,2.47124211 40.14826,5.50169825 L40.14826,23.3941895"/>
    <path fill="#221F20" d="M135.799103 3.91034386L153.718807 3.91034386 153.718807 18.8161684C153.718807 20.3774316 152.586574 21.5058526 150.741766 21.5058526L135.799103 21.5058526 135.799103 3.91034386zM138.135108 5.61813333L138.135108 19.7250807 150.192548 19.7250807C151.00539 19.7250807 151.382801 19.3113263 151.382801 18.5994667L151.382801 5.61813333 138.135108 5.61813333zM57.8430947 3.77903158L57.8430947 4.93664561 61.6019966 4.93664561 61.6019966 6.63825965 60.4100535 6.63825965C60.4032939 7.40457544 60.2100819 8.56780351 59.9019568 9.59910175L61.6019966 9.59910175 61.6019966 11.2282947 57.8312654 11.2282947 57.8312654 12.1899789 61.6019966 12.1899789 61.6019966 13.9426807 60.3047164 13.9426807C60.3142925 15.0997333 60.6804376 16.2747509 61.3744233 17.097207L60.4427249 19.180014C58.8953394 17.7226105 58.4418828 15.6055579 58.3692171 13.9426807L57.8312654 13.9426807 57.8312654 21.5278035 55.7222697 21.5278035 55.7222697 13.9426807 55.1584063 13.9426807C55.0553223 16.1169965 54.5337064 18.6640842 52.7739568 20.5941895L51.0519482 19.5814175C52.781843 17.449207 53.0871516 15.820014 53.1795329 13.9426807L51.6056723 13.9426807 51.6056723 12.1899789 55.7222697 12.1899789 55.7222697 11.2282947 51.6056723 11.2282947 51.6056723 9.59910175 53.7298771 9.59910175C53.4363977 8.63180351 53.2561417 7.65103158 53.2291033 6.63825965L51.9594248 6.63825965 51.9594248 4.93664561 55.7188899 4.93664561 55.7188899 3.77903158 57.8430947 3.77903158zM58.4875101 6.63825965L55.1493935 6.63825965C55.1702356 7.46689123 55.4085115 8.77945263 55.7549411 9.59910175L57.8825257 9.59910175C58.2182526 8.79236491 58.4520222 7.48878596 58.4875101 6.63825965L58.4875101 6.63825965zM70.7499909 5.71082105C69.1107875 6.19418947 66.900961 6.55797895 64.960392 6.62534737 64.9817974 7.38099649 64.9851772 8.24443509 64.9525058 9.43966316L71.4473565 9.43966316 71.4473565 11.2878035 69.4313053 11.2878035 69.4313053 21.5278035 67.3206196 21.5278035 67.3206196 11.2878035 64.88153 11.2878035C64.6967676 14.6197333 64.1999368 18.5467509 63.0513679 21.2965053L60.8133764 20.6890667C62.9257519 15.9120842 62.6514248 9.53622456 62.6333991 6.77804912L62.6210065 4.86871579C65.515806 4.75587368 68.5756523 4.26352281 70.4965058 3.70548772L70.7499909 5.71082105z"/>
    <path fill="#221F20" d="M141.296518,14.4563649 L143.502964,14.4563649 L143.502964,11.116014 L141.296518,11.116014 L141.296518,14.4563649 Z M139.583522,9.81299649 L145.21596,9.81299649 L145.21596,15.7593825 L139.583522,15.7593825 L139.583522,9.81299649 Z"/>
    <path fill="#221F20" d="M147.661359 6.12030877C147.656289 6.52283509 147.663612 6.91357193 147.661359 7.2930807L148.862878 7.2930807C148.844289 7.02529123 148.778383 6.46950175 148.704591 6.18430877L150.253103 6.18430877C150.542639 6.93490526 150.625444 7.99764211 150.625444 8.88465965L147.661359 8.88465965C147.642207 10.7226947 147.683891 12.6230456 148.09679 14.0535018 148.456739 13.5072561 148.661217 12.3170807 148.670229 11.4878877L150.244653 11.4878877C150.217051 13.4988351 149.687549 14.7973614 148.960329 15.9207298 149.289296 16.3962386 149.717968 16.7813614 150.370832 17.065993L150.370269 19.0460632C146.641785 17.9210105 145.735999 14.4150456 145.732619 8.88465965L139.053006 8.88465965 139.053006 7.2930807 145.732619 7.2930807C145.731492 6.91357193 145.731492 6.52339649 145.732619 6.12030877M139.053457 17.1984281C141.032893 17.1782175 143.956421 16.9351298 145.831084 16.3944982L145.831084 18.0366035C143.831368 18.5093053 141.037963 18.8023579 139.053457 18.8107789M115.195161 6.44760702L122.690432 6.44760702 122.690432 3.77925614 125.39033 3.77925614 125.39033 6.44760702 132.885038 6.44760702 132.885038 14.1989053C132.885038 15.6714667 132.01474 16.6005895 130.541147 16.6005895L125.39033 16.6005895 125.39033 21.5050105 122.690432 21.5050105 122.690432 16.6005895 115.195161 16.6005895 115.195161 6.44760702zM125.39033 8.45911579L125.39033 14.5885193 129.383001 14.5885193C129.977283 14.5885193 130.360327 14.2191158 130.360327 13.6942035L130.360327 8.45911579 125.39033 8.45911579zM122.690432 14.5885193L122.690432 8.45911579 117.720435 8.45911579 117.720435 14.5885193 122.690432 14.5885193zM95.8677696 3.95581754L110.781141 3.95581754 110.781141 10.5135719C110.781141 11.7048702 109.913659 12.4975719 108.702 12.4975719L107.074063 12.4975719C108.512731 13.9482386 110.889294 15.0873263 113.239383 15.6986947L112.186011 17.6310456C110.634119 17.1987649 108.924504 16.5503439 107.600185 15.6610807L107.600185 21.5041684 105.292344 21.5041684 105.292344 14.7151158 106.391906 14.7151158C105.573431 14.0324491 105.019707 13.4081684 104.45866 12.4975719L102.086603 12.4975719C101.525556 13.4081684 100.978592 14.0262737 100.159553 14.7089404L101.308122 14.7089404C101.042245 17.4996772 99.8536814 20.0327298 97.9474737 21.7455719L96.0508421 20.5857123C97.721027 19.1305544 98.7000427 17.0146246 98.9907055 15.6296421 97.6951152 16.5082386 95.9235363 17.1695719 94.3913599 17.6310456L93.3379886 15.6986947C95.7455334 15.0289404 98.1277297 13.9297123 99.5410498 12.4975719L95.8677696 12.4975719 95.8677696 3.95581754zM104.325721 7.3253614L108.569061 7.3253614 108.569061 5.54458947 104.325721 5.54458947 104.325721 7.3253614zM104.325721 8.9242386L104.325721 10.8448 107.841277 10.8448C108.327969 10.8448 108.569061 10.530414 108.569061 10.0633263L108.569061 8.9242386 104.325721 8.9242386zM98.0798492 10.8448L102.177858 10.8448 102.177858 8.9242386 98.0798492 8.9242386 98.0798492 10.8448zM102.177858 7.3253614L102.177858 5.54458947 98.0792859 5.54458947 98.0792859 7.3253614 102.177858 7.3253614zM156.809522 9.00985263L159.233403 9.00985263 159.233403 5.54767719 161.454495 5.54767719 161.454495 9.00985263 163.160168 9.00985263 163.160168 10.7608702 161.454495 10.7608702 161.454495 18.8939228C162.084828 18.7406596 162.666154 18.6143439 163.160168 18.4380632L163.160168 20.367607C161.802615 20.8627649 159.030615 21.3012211 156.958797 21.5055719L156.642222 19.6181333C157.46633 19.5636772 158.355781 19.4171509 159.233403 19.2756772L159.233403 10.7608702 156.809522 10.7608702 156.809522 9.00985263zM166.089329 8.19694035C166.840771 7.91511579 167.553346 7.68494035 168.537431 7.43960702L168.537431 3.98304561 170.613192 3.98304561 170.613192 7.01687018C172.020316 6.79118596 173.607696 6.65701053 175.377585 6.68227368L175.377585 12.0964491C175.377585 14.2954667 174.541647 16.239607 172.750916 17.3034667L172.139172 15.3262035C173.324919 14.3920281 173.301824 12.943607 173.301824 11.8073263L173.301824 8.62585263C172.39829 8.63932632 171.503206 8.73195789 170.613192 8.88802807L170.613192 16.4181333 168.537431 16.4181333 168.537431 9.36072982C167.669385 9.60157193 166.957937 9.83960702 166.089329 10.162414L166.089329 19.4368 171.223809 19.4368C172.776828 19.4368 174.198034 19.0157474 175.781471 18.0995368L176.433772 20.0060632C174.979895 21.0233263 172.674871 21.5055719 171.080168 21.5055719L163.85866 21.5055719 163.85866 5.54767719 166.089329 5.54767719 166.089329 8.19694035zM191.00246 3.8053614L191.00246 5.09153684 197.234813 5.09153684 197.234813 6.82458947 194.941618 6.82458947C194.852617 7.55385263 194.672361 8.56325614 194.386768 9.24030877L197.442108 9.24030877 197.442108 10.9183439 191.258199 10.9183439 191.258199 12.9158175 196.112156 12.9158175 196.112156 14.5579228 191.258199 14.5579228 191.258199 16.1197474 195.807411 16.1197474 195.807411 17.7618526 191.258199 17.7618526 191.258199 19.8098526 197.213408 19.8098526 197.213408 21.5075368 182.955154 21.5075368 182.955154 19.8098526 189.039923 19.8098526 189.039923 17.7618526 184.537465 17.7618526 184.537465 16.1197474 189.039923 16.1197474 189.039923 14.5579228 183.751098 14.5579228C183.723496 13.2666947 183.925721 12.5127298 184.292992 11.5370105L186.022887 11.5370105C185.888258 11.9709754 185.706876 12.4812912 185.704059 12.9158175L189.039923 12.9158175 189.039923 10.9183439 182.776025 10.9183439C182.590136 14.6977123 182.083729 18.3103439 180.520571 21.7843088L178.426221 21.3183439C179.984873 17.6125193 180.714347 14.0807298 180.619712 9.24030877L184.817988 9.24030877C184.532395 8.56325614 184.351576 7.55385263 184.262574 6.82458947L180.614642 6.82458947 180.614642 5.09153684 188.718278 5.09153684 188.718278 3.8053614 191.00246 3.8053614zM187.301015 9.24030877L191.904304 9.24030877C192.329032 8.59694035 192.582517 7.58304561 192.700247 6.82458947L186.505072 6.82458947C186.622238 7.58304561 186.875723 8.59694035 187.301015 9.24030877L187.301015 9.24030877zM78.4340245 18.8736L91.6411596 18.8736 91.6417229 21.0299509 75.8236916 21.0299509 75.8236916 20.8643368 75.8214384 20.8643368 75.8214384 9.14279298 73.3626333 9.14279298 73.3626333 7.13128421 75.8214384 7.13128421 75.8214384 4.31584561 78.4340245 4.31584561 78.4340245 7.13128421 81.2584114 7.13128421 81.2584114 3.95486316 83.5583659 3.95486316 83.5583659 7.13128421 86.9533758 7.13128421 86.9533758 3.95486316 89.252767 3.95486316 89.252767 7.13128421 92.0489889 7.13128421 92.0489889 9.14279298 89.252767 9.14279298 89.252767 14.5749333C89.252767 15.7943018 88.5030145 16.6728982 87.0440671 16.6728982L81.2584114 16.6728982 81.2584114 9.14279298 78.4340245 9.14279298 78.4340245 18.8736zM86.9533758 9.14279298L83.5583659 9.14279298 83.5583659 14.6990035 86.2560102 14.6990035C86.6689092 14.6990035 86.9533758 14.4323368 86.9533758 14.035986L86.9533758 9.14279298z"/>
  </g>
</svg>
